<!-- Generated by IcoMoon.io -->
<svg version="1.1" xmlns="http://www.w3.org/2000/svg" width="32" height="32" viewBox="0 0 32 32">
<title>-</title>
<path d="M16.205 0.229c1.034 0 2.184 0 3.218 0.343l-3.218 6.286c-4.827-0.343-9.079 3.543-9.424 8.571-0.23 5.029 3.448 9.371 8.39 9.6h1.034c2.184 0 4.252-0.8 5.861-2.171l3.448 6.057c-2.643 1.943-5.861 3.086-9.424 3.086-8.505 0.229-15.745-6.286-16.090-15.2-0.23-8.8 6.206-16.229 14.826-16.571h1.379z"></path>
<path d="M19.653 13.829l-4.022 6.857h7.815l3.678 6.629 4.022-6.629-4.022-6.857h-7.47z"></path>
<path d="M20.687 11.314c0-1.143 0.23-2.171 0.805-3.086 0.575-0.8 1.609-1.714 2.413-2.171l0.575-0.343c1.034-0.571 1.379-0.8 1.379-1.371s-0.805-1.143-1.379-1.143c-1.034 0-1.954 0.571-2.413 1.714l-1.379-1.257c0.23-0.571 0.805-1.143 1.379-1.714 0.805-0.571 1.609-0.571 2.413-0.571s1.954 0.343 2.413 0.8c0.46 0.571 1.034 1.371 1.034 2.171 0 1.371-0.805 2.514-2.413 3.086l-0.804 0.571c-0.805 0.571-1.379 0.8-1.609 1.714h4.827v1.943c0-0.114-7.24-0.343-7.24-0.343z"></path>
</svg>
