<!-- Generated by IcoMoon.io -->
<svg version="1.1" xmlns="http://www.w3.org/2000/svg" width="130" height="32" viewBox="0 0 130 32">
<title>Capterra</title>
<path d="M36.74 21.933c-0.571 0.342-1.826 0.571-2.738 0.456-4.336 0-6.047-3.423-6.047-7.074 0-3.195 1.255-6.275 5.134-6.275 1.369 0 2.054 0.342 2.282 1.141l0.342 1.483c0.114 0.228 0.228 0.342 0.456 0.342h1.027c0.228 0 0.456-0.228 0.456-0.456v-3.765c0-0.228-0.228-0.456-0.342-0.571-1.027-0.228-2.624-0.456-3.423-0.456-5.591 0-9.698 3.537-9.698 9.128 0 5.249 3.879 9.128 9.356 9.128 1.826 0 3.537-0.456 4.336-0.799 0.228-0.114 0.228-0.342 0.228-0.571-0.456 0-0.799-1.369-0.799-1.369-0.114-0.228-0.342-0.456-0.57-0.342zM45.411 22.732c-1.255 0-2.168-0.799-2.054-1.826 0-1.483 1.027-2.51 3.993-2.51 0.228 0 0.228 0.114 0.228 0.228l0.114 2.054c0 1.027-0.913 2.054-2.282 2.054zM52.713 22.96c0-0.228-0.228-0.342-0.456-0.342-0.228 0.114-0.456 0.114-0.685 0.114-0.571 0-0.685-0.342-0.685-0.799v-6.047c0-3.537-2.168-4.906-5.363-4.906-1.597 0-3.309 0.342-4.45 0.799-0.228 0.114-0.342 0.342-0.228 0.57l0.342 1.597c0.114 0.342 0.342 0.342 0.57 0.228 0.799-0.456 1.826-0.685 2.852-0.685 1.711 0 2.966 0.685 2.966 2.168v0.456c0 0.228-0.114 0.456-0.228 0.456-3.993 0-7.302 1.255-7.302 4.906 0 2.054 1.483 3.651 3.879 3.651 2.168 0 3.195-0.913 3.993-1.826h0.114c0.114 1.027 0.685 1.826 2.168 1.826 0.799 0 2.168-0.228 2.396-0.456 0.228-0.114 0.228-0.228 0.228-0.456l-0.114-1.255zM61.499 13.604c2.168 0 3.081 2.168 3.195 4.336 0 2.282-0.913 4.792-3.423 4.792-1.369 0-2.168-0.685-2.168-1.826v-5.249c0-1.255 1.027-2.054 2.396-2.054zM61.157 29.806c0.228 0 0.456-0.228 0.456-0.456v-0.685c0-0.228-0.114-0.456-0.342-0.456l-1.597-0.228c-0.228-0.114-0.57-0.342-0.57-0.799v-2.852c0.114 0 0.342 0 0.57 0 0.342 0 0.57 0.114 0.913 0.114 5.020 0 7.53-3.081 7.53-7.53 0-3.651-2.168-6.161-5.249-6.161-2.054 0-3.195 1.027-4.108 2.054h-0.114l-0.228-1.255c0-0.228-0.228-0.571-0.57-0.456l-4.222 0.456c-0.228 0-0.456 0.228-0.456 0.456v0.685c0 0.228 0.114 0.342 0.342 0.456l1.255 0.228c0.456 0.114 0.57 0.57 0.57 0.799v13.349c0 0.57-0.228 0.799-0.57 0.799l-1.027 0.342c-0.228 0.114-0.342 0.228-0.342 0.456v0.685c0 0.228 0.228 0.456 0.456 0.456l7.302-0.456zM78.271 22.275c-0.571 0.228-1.141 0.342-1.597 0.456-1.483 0-2.282-0.913-2.282-2.396v-6.161c0-0.228 0.228-0.342 0.456-0.342h3.309c0.114 0 0.228-0.228 0.228-0.228v-1.597c0-0.114-0.114-0.228-0.228-0.228h-3.309c-0.228 0-0.342-0.228-0.342-0.342v-2.738c0-0.342-0.114-0.57-0.456-0.456l-2.51 0.799c-0.342 0.114-0.456 0.342-0.456 0.685v1.711c0 0.228 0 0.456-0.342 0.456h-1.483c-0.114 0-0.228 0.228-0.228 0.228l-0.114 1.483c0 0.228 0 0.342 0.228 0.342h1.826c0.228 0 0.342 0.114 0.342 0.342v6.846c0 2.624 1.826 4.107 4.45 4.107 1.027 0 2.51-0.228 3.309-0.685 0.228-0.114 0.228-0.228 0.228-0.57l-0.456-1.369c0-0.228-0.228-0.342-0.57-0.342zM88.312 14.859c0-1.141-0.799-2.054-2.054-2.054-2.054 0-2.967 2.282-2.853 3.993 0 0.228 0.114 0.342 0.342 0.342 0.228 0.114 0.571 0.114 1.027 0.114 1.711 0 3.537-0.571 3.537-2.396zM90.594 21.819c0.228-0.228 0.457 0 0.571 0.228l0.114 1.369c0.114 0.228 0 0.456-0.228 0.57-1.027 0.685-2.624 1.027-4.107 1.027-4.564 0-6.96-2.852-6.96-7.074 0-3.993 3.081-6.96 6.846-6.96 2.51 0 5.021 1.369 5.021 3.993 0 3.081-3.195 4.222-5.933 4.222-0.342 0-0.685 0-1.027 0s-0.571 0-0.799 0c-0.228 0-0.342 0.114-0.342 0.342 0.228 2.054 2.282 3.309 3.993 3.309 1.255 0 2.168-0.456 2.852-0.799 0-0.228 0-0.228 0-0.228zM100.863 24.786v0.228h-7.075c-0.228 0-0.456-0.228-0.456-0.456v-0.685c0-0.228 0.114-0.342 0.342-0.456l1.142-0.228c0.342 0 0.57-0.228 0.57-0.799v-8.215c0-0.228-0.114-0.685-0.57-0.799l-1.256-0.228c-0.227-0.114-0.342-0.228-0.342-0.456v-0.685c0-0.228 0.228-0.456 0.456-0.456l4.222-0.571c0.228 0 0.456 0.228 0.456 0.571l0.228 1.826h0.114c1.027-1.369 2.168-2.51 3.88-2.51 0.342 0 0.798 0 1.141 0.228 0.228 0 0.343 0.228 0.228 0.57l-0.571 2.396c0 0.114-0.343 0.342-0.571 0.228-0.456-0.114-1.027-0.228-1.597-0.228-1.256 0-2.397 0.799-2.397 2.168v5.933c0 0.456 0.343 0.799 0.571 0.799l1.597 0.228c0.228 0.114 0.342 0.228 0.342 0.456v0.685c0 0.228-0.227 0.456-0.456 0.456zM112.843 24.329v-0.685c0-0.228-0.114-0.342-0.343-0.456l-1.597-0.228c-0.228 0-0.57-0.228-0.57-0.799v-5.933c0-1.369 1.141-2.168 2.396-2.168 0.571 0 1.141 0.114 1.597 0.228 0.228 0.114 0.571-0.114 0.571-0.228l0.57-2.396c0.114-0.342 0-0.57-0.228-0.57-0.342-0.228-0.798-0.228-1.141-0.228-1.597 0-2.852 1.141-3.879 2.51h-0.114l-0.228-2.054c0-0.342-0.228-0.57-0.457-0.57l-4.221 0.57c-0.228 0-0.457 0.228-0.457 0.456v0.685c0 0.228 0.114 0.342 0.343 0.456l1.255 0.228c0.457 0.114 0.571 0.456 0.571 0.799v8.215c0 0.456-0.228 0.799-0.571 0.799l-1.141 0.228c-0.228 0.114-0.343 0.228-0.343 0.456v0.685c0 0.228 0.228 0.456 0.457 0.456h7.074c0.228 0 0.457-0.228 0.457-0.456zM124.595 20.678l-0.227-2.168c0-0.114 0-0.228-0.228-0.228-2.966 0-3.994 1.027-3.994 2.51 0 1.141 1.027 1.94 2.168 1.94 1.483 0 2.281-1.027 2.281-2.054zM129.159 22.618c0.228 0 0.457 0.114 0.457 0.342l0.228 1.369c0 0.228 0 0.342-0.228 0.456-0.343 0.228-1.597 0.456-2.396 0.456-1.369 0-2.054-0.685-2.168-1.826h-0.114c-0.798 0.799-1.94 1.826-3.993 1.826-2.397 0-3.88-1.597-3.88-3.651 0-3.651 3.309-4.906 7.303-4.906 0.113 0 0.227-0.228 0.227-0.456v-0.57c0-1.597-1.255-2.168-2.966-2.168-1.027 0-2.167 0.342-2.852 0.685-0.228 0.114-0.457 0.114-0.571-0.228l-0.342-1.597c-0.114-0.228 0-0.456 0.228-0.57 1.141-0.57 2.852-0.799 4.45-0.799 3.195 0 5.362 1.369 5.362 4.906v6.047c0 0.571 0.228 0.799 0.799 0.799 0 0 0.228 0 0.456-0.114z"></path>
<path d="M5.249 15.087h-4.564c-0.114 0-0.228-0.114-0.114-0.114-0.114 0-0.114-0.114-0.114-0.228l0.114-0.571c0.114-0.228 0.114-0.342 0.114-0.342 0-0.114 0.114-0.228 0.114-0.342 0-0.228 0.114-0.456 0.228-0.685 1.826-6.732 7.759-11.98 8.329-12.551 0.342-0.114 0.456-0.114 0.685 0 6.275 5.591 8.671 11.182 8.9 14.262v0.342c0 0.114-0.114 0.342-0.342 0.342h-4.678c-0.114 0-0.342 0-0.342-0.228-0.456-1.94-2.168-3.195-3.993-3.195-1.94 0-3.537 1.369-3.993 3.195-0.114 0-0.114 0.114-0.342 0.114zM13.692 16.913h4.678c0 0 0.228 0 0 0.114 0.114 0 0.114 0.114 0.114 0.228l-0.114 0.57c-0.114 0.114-0.114 0.228-0.114 0.228 0 0.114-0.114 0.228-0.114 0.342 0 0.228-0.114 0.456-0.228 0.685-1.94 6.732-7.873 12.094-8.443 12.665-0.228 0.114-0.342 0.114-0.571 0-6.161-5.591-8.671-11.182-8.9-14.262v-0.342c0-0.114 0.114-0.342 0.342-0.342h4.678c0.114 0 0.342 0 0.342 0.228 0.456 1.94 2.168 3.195 3.993 3.195 1.94 0 3.537-1.369 3.993-3.195 0 0 0.114-0.114 0.342-0.114z"></path>
</svg>
