<!-- Generated by IcoMoon.io -->
<svg version="1.1" xmlns="http://www.w3.org/2000/svg" width="253" height="32" viewBox="0 0 253 32">
<title>daimler</title>
<path d="M3.358 2.47h-2.239c-0.28-1.943-0.14-2.359 6.438-2.359h9.238c13.156 0 18.755 5.828 18.755 15.542 0 9.297-5.319 15.542-18.335 15.542h-17.075c-0.14-0.555-0.14-1.249 0-1.804 4.899-0.278 5.738-0.555 5.738-3.608v-21.37c0-1.665-0.56-1.943-2.519-1.943zM29.531 16.486c0-8.604-4.479-13.738-13.296-13.738h-4.759v22.619c0 2.775 0.98 3.192 5.179 3.192 7.838 0.139 12.877-2.359 12.877-12.073z"></path>
<path d="M57.524 0.389c0.14 0.971 0.42 1.804 1.12 3.33l10.497 23.729c0.56 1.11 0.98 1.526 3.359 1.526h0.98c0.28 1.249 0 2.081-1.12 2.081h-14.696c-0.14-0.416-0.14-1.11 0-1.804 4.899-0.139 5.459-0.555 4.899-1.665l-2.799-6.8h-11.757l-1.819 4.857c-0.98 2.637-0.98 3.331 1.4 3.331h3.919c0.28 1.249 0 2.081-1.12 2.081h-13.016c-0.14-0.416-0.14-1.11 0-1.804 3.499-0.416 3.919-0.694 5.179-3.608l8.957-21.092c1.54-3.469 2.1-4.163 4.199-4.163h1.819zM58.643 18.429l-4.899-11.656-4.759 11.656h9.657z"></path>
<path d="M91.535 0.945c0.14 0.416 0.14 1.249 0 1.804-3.919 0.278-4.479 1.11-4.479 3.053v21.37c0 1.527 0.42 1.943 2.379 1.943h2.519c0.28 1.249 0.14 2.082-1.12 2.082h-13.856c-0.14-0.416-0.14-1.11 0-1.804 3.639-0.555 4.479-0.971 4.479-2.914v-21.509c0-1.665-0.42-1.943-2.519-1.943h-2.239c-0.28-1.11 0-2.082 1.959-2.082h12.877z"></path>
<path d="M143.882 0.945c0.14 0.555 0.14 1.11 0 1.804-4.199 0.278-4.479 0.971-4.339 2.359l2.239 22.064c0.14 1.388 0.84 1.527 4.339 2.082 0.14 1.249-0 2.082-1.26 2.082h-16.095c-0.14-0.555-0.14-1.11 0-1.804l2.519-0.139c3.779-0.277 4.479-0.694 4.199-2.914l-2.099-19.844-10.917 22.758c-0.84 1.665-1.12 1.943-2.239 1.943l-12.597-24.562-1.4 20.26c-0.14 1.804-0.14 2.22 4.619 2.22h2.519c0.28 1.249 0.14 2.082-1.12 2.082h-14.976c-0.14-0.555-0.14-1.11 0-1.804 5.039-0.278 5.459-1.11 5.599-3.053l1.819-21.231c0.14-1.388-0.14-1.943-4.619-2.082-0.28-0.971 0-2.082 1.959-2.082h9.238l11.477 21.648 10.497-21.648h10.637v-0.139z"></path>
<path d="M168.933 0.945c0.14 0.416 0.14 1.249 0 1.804-4.759 0.278-5.738 0.694-5.738 3.608v19.982c0 1.526 0.839 1.943 2.099 1.943h2.939c3.359 0 3.778-0.278 5.737-4.302l1.26-2.775c1.261 0 1.96 0.555 1.541 1.943-0.98 2.637-1.821 5.273-2.38 8.049h-22.254c-0.14-0.555-0.14-1.11 0-1.804 4.479-0.278 5.459-0.833 5.459-3.747v-20.676c0-1.665-0.56-1.943-2.519-1.943h-2.239c-0.28-1.11 0-2.082 1.959-2.082h14.136z"></path>
<path d="M205.885 0.944c0.14 2.082 0.421 4.163 0.701 6.106 0.28 1.388-0.28 2.22-1.819 2.082l-0.421-2.082c-0.839-2.775-1.679-3.469-4.197-3.469h-7.279v11.518h4.76c1.4 0 1.679-0.416 1.819-1.665l0.28-2.359h0.561c0.839 0 1.4 0.278 1.258 1.665-0.14 2.775-0.14 5.967 0 8.881-0.419 0.139-1.118 0.278-1.538 0-0.561-3.469-1.12-3.885-2.38-3.885h-4.76v7.91c0 1.665 0.419 2.359 3.498 2.359h3.921c3.358 0 3.778-0.278 5.736-4.302l1.261-2.775c1.26 0 1.959 0.555 1.539 1.943-0.98 2.637-1.821 5.273-2.38 8.049h-25.053c-0.14-0.555-0.14-1.11 0-1.804 4.758-0.277 5.738-0.555 5.738-3.608v-20.815c0-1.665-0.421-1.943-2.52-1.943h-2.24c-0.14-1.11 0-2.082 1.96-2.082h21.553v0.278z"></path>
<path d="M217.081 3.026h-2.238c-0.28-1.11 0-2.082 1.819-2.22 2.24-0.139 4.899-0.139 11.338-0.139 8.677 0 13.576 4.163 13.576 10.269 0 3.747-2.38 6.8-6.159 8.465 0 0 3.36 3.053 5.179 4.441 6.018 4.718 7.978 5.134 11.897 5.134 0.419 1.526-0.701 2.775-5.6 2.775-4.197 0-6.996-0.971-10.356-3.747-1.539-1.249-3.079-3.053-4.339-5.134-1.12-2.082-1.26-2.22-4.059-2.22h-2.799v6.661c0 1.249 0.419 1.804 2.799 1.804h2.38c0.14 1.249 0 2.082-1.26 2.082h-14.277c-0.14-0.555-0.14-1.11 0-1.804 3.919-0.278 4.899-0.694 4.899-3.469v-20.815c-0.28-1.804-0.839-2.082-2.801-2.082zM227.439 18.151c4.48 0 8.118-0.694 8.118-6.8s-3.638-8.048-8.819-8.048h-1.398v14.848h2.099z"></path>
</svg>
