<!-- Generated by IcoMoon.io -->
<svg version="1.1" xmlns="http://www.w3.org/2000/svg" width="137" height="32" viewBox="0 0 137 32">
<title>lokalise</title>
<path d="M0 0.348h5.374v31.053h-5.374v-31.053z"></path>
<path d="M14.565 30.515c-1.698-0.991-3.042-2.352-4.031-4.078-0.994-1.725-1.486-3.624-1.486-5.691 0-2.073 0.497-3.966 1.486-5.691s2.333-3.081 4.031-4.078c1.698-0.991 3.539-1.49 5.517-1.49 1.984 0 3.819 0.498 5.517 1.49s3.042 2.353 4.031 4.078c0.989 1.725 1.486 3.624 1.486 5.691 0 2.072-0.497 3.966-1.486 5.691-0.994 1.725-2.338 3.086-4.031 4.078-1.698 0.991-3.539 1.49-5.517 1.49-1.984-0.006-3.824-0.499-5.517-1.49zM22.912 25.984c0.857-0.504 1.539-1.216 2.058-2.134 0.513-0.919 0.772-1.955 0.772-3.103s-0.259-2.185-0.772-3.103c-0.518-0.919-1.201-1.63-2.058-2.134s-1.798-0.756-2.83-0.756c-1.032 0-1.973 0.252-2.83 0.756s-1.539 1.215-2.058 2.134c-0.518 0.919-0.772 1.955-0.772 3.103s0.259 2.184 0.772 3.103c0.513 0.919 1.201 1.63 2.058 2.134s1.798 0.756 2.83 0.756c1.031 0 1.973-0.252 2.83-0.756z"></path>
<path d="M34.789 0.348h5.374v18.501l7.004-8.755h6.395l-7.903 9.875 8.474 11.427h-6.882l-7.088-9.875v9.875h-5.374v-31.048z"></path>
<path d="M59.201 30.621c-1.508-0.919-2.729-2.235-3.666-3.943s-1.407-3.686-1.407-5.932c0-2.039 0.45-3.926 1.344-5.652s2.116-3.092 3.666-4.1 3.242-1.512 5.089-1.512c1.301 0 2.491 0.23 3.565 0.689s1.894 1.075 2.465 1.854v-1.938h5.374v21.307h-5.374v-1.938c-0.841 0.835-1.74 1.468-2.687 1.899s-2.174 0.65-3.666 0.65c-1.629-0.006-3.195-0.465-4.703-1.383zM68.997 25.014c1.005-1.148 1.507-2.571 1.507-4.268s-0.503-3.12-1.507-4.268c-1.005-1.148-2.338-1.725-3.994-1.725s-2.989 0.577-3.994 1.725c-1.005 1.148-1.508 2.576-1.508 4.268 0 1.697 0.503 3.12 1.508 4.268s2.333 1.725 3.994 1.725c1.656 0 2.989-0.577 3.994-1.725z"></path>
<path d="M80.36 0.348h5.374v31.053h-5.374v-31.053z"></path>
<path d="M90.743 6.122c-0.651-0.689-0.979-1.524-0.979-2.504 0-1.008 0.328-1.86 0.979-2.565s1.439-1.059 2.365-1.059c0.952 0 1.756 0.353 2.423 1.059s1 1.563 1 2.565c0 0.98-0.333 1.809-1 2.504-0.666 0.689-1.476 1.036-2.423 1.036-0.926 0-1.709-0.342-2.365-1.036zM90.458 10.093h5.374v21.307h-5.374v-21.307z"></path>
<path d="M99.503 29.933l1.222-5.349h0.243c1.767 1.44 3.571 2.157 5.417 2.157 0.762 0 1.375-0.151 1.851-0.454s0.714-0.739 0.714-1.316c0-0.605-0.28-1.092-0.836-1.467s-1.597-0.835-3.116-1.378c-1.55-0.543-2.751-1.339-3.602-2.375s-1.285-2.257-1.285-3.663c0-1.983 0.698-3.579 2.1-4.789 1.396-1.21 3.168-1.809 5.316-1.809 1.084 0 2.052 0.106 2.893 0.325s1.64 0.566 2.402 1.059l0.201 5.433h-0.286c-0.979-0.661-1.846-1.159-2.608-1.49s-1.613-0.498-2.566-0.498c-0.677 0-1.238 0.146-1.672 0.431s-0.65 0.661-0.65 1.12c0 0.605 0.27 1.098 0.815 1.49 0.545 0.386 1.56 0.857 3.057 1.4 1.709 0.605 3.004 1.339 3.888 2.201s1.322 2.201 1.322 4.011c0 1.496-0.354 2.773-1.058 3.837-0.709 1.064-1.634 1.86-2.788 2.392s-2.423 0.795-3.809 0.795c-2.798 0.006-5.189-0.683-7.168-2.061z"></path>
<path d="M121.908 30.493c-1.682-1.008-3.010-2.381-3.973-4.117-0.963-1.742-1.444-3.675-1.444-5.803 0-2.072 0.455-3.949 1.365-5.629s2.174-3.014 3.787-3.988c1.613-0.975 3.444-1.468 5.48-1.468 2.063 0 3.851 0.51 5.353 1.529 1.508 1.019 2.645 2.381 3.422 4.078 0.772 1.697 1.164 3.523 1.164 5.478v1.68h-15.435c0.328 1.613 1.026 2.834 2.1 3.663 1.074 0.834 2.491 1.249 4.258 1.249 2.687 0 5.036-0.935 7.046-2.801h0.571l-0.201 5.389c-1.222 0.751-2.513 1.311-3.872 1.68-1.359 0.375-2.661 0.56-3.909 0.56-2.132 0.006-4.031-0.493-5.713-1.501zM131.683 18.372c-0.137-1.294-0.645-2.308-1.529-3.042s-1.963-1.098-3.237-1.098c-1.248 0-2.343 0.353-3.28 1.059s-1.566 1.731-1.894 3.086l9.939-0.006z"></path>
</svg>
