<!-- Generated by IcoMoon.io -->
<svg version="1.1" xmlns="http://www.w3.org/2000/svg" width="143" height="32" viewBox="0 0 143 32">
<title>revolut</title>
<path d="M0 15.761v15.748h6.246v-12.838l4.787 0.151 3.674 6.324 3.648 6.324 3.597 0.038c1.946 0 3.558-0.050 3.558-0.126s-1.664-2.999-3.674-6.488c-2.035-3.49-3.725-6.4-3.776-6.488-0.051-0.101 0.563-0.479 1.395-0.894 1.907-0.932 3.827-2.684 4.646-4.271 1.139-2.255 1.203-6.224 0.102-8.328-1.139-2.18-3.802-4.019-6.733-4.636-0.832-0.176-4.506-0.29-9.421-0.29h-8.051v15.773zM16.576 5.909c1.434 0.643 2.163 1.789 2.163 3.452 0 1.537-0.653 2.721-1.869 3.376-0.73 0.378-1.638 0.479-5.722 0.542l-4.89 0.101v-8.013h4.621c3.981 0.025 4.762 0.101 5.696 0.542z"></path>
<path d="M99.392 16.025v15.496h5.99v-30.992h-5.99v15.496z"></path>
<path d="M132.48 15.042c0.077 11.943 0.077 11.994 0.678 13.191 0.678 1.361 2.291 2.898 3.597 3.427 0.563 0.227 1.869 0.353 3.738 0.353h2.867v-5.115h-1.664c-1.267 0-1.792-0.126-2.342-0.542l-0.678-0.516v-12.006h4.685v-4.863h-4.685v-5.896h-6.272l0.077 11.969z"></path>
<path d="M33.51 8.945c-2.112 0.693-3.546 1.575-5.069 3.15-1.562 1.663-2.291 2.948-2.816 5.128-1.395 5.846 1.165 11.439 6.374 13.871 1.613 0.768 1.818 0.806 5.069 0.806 2.906 0 3.597-0.076 4.89-0.605 1.818-0.718 4.25-2.822 5.21-4.561l0.678-1.247-2.086-1.197c-1.139-0.668-2.176-1.197-2.291-1.197-0.102 0-0.55 0.517-1.011 1.121-1.037 1.487-2.445 2.381-4.16 2.721-1.523 0.29-2.637 0.126-3.955-0.542-1.562-0.768-3.123-2.784-3.123-4.069 0-0.516 0.102-0.516 8.589-0.516h8.589v-2.142c0-4.913-2.304-8.542-6.63-10.419-1.856-0.857-6.157-0.983-8.256-0.302zM40.538 13.947c0.678 0.466 1.331 1.197 1.741 2.053l0.678 1.31-5.773 0.076c-3.174 0.038-5.824 0-5.901-0.076-0.358-0.353 1.51-2.646 2.816-3.414 1.331-0.806 1.562-0.844 3.418-0.768 1.638 0.076 2.112 0.176 3.021 0.819z"></path>
<path d="M80.691 8.857c-3.354 0.932-6.451 3.364-7.718 6.098-0.909 2.003-1.306 5.077-0.909 7.395 1.011 6.060 5.555 9.688 12.224 9.688 3.904 0 6.502-0.932 9.024-3.15 1.459-1.31 2.445-2.948 3.085-5.153 0.55-1.877 0.422-6.060-0.23-7.849-1.075-2.898-3.904-5.581-7.104-6.702-1.984-0.718-6.362-0.882-8.371-0.328zM87.027 14.576c3.648 1.587 4.851 6.375 2.394 9.55-1.741 2.255-5.414 3.099-7.885 1.827-1.344-0.718-2.816-2.306-3.226-3.54-0.525-1.537-0.218-4.271 0.602-5.468 1.843-2.747 5.043-3.666 8.115-2.369z"></path>
<path d="M48.218 9.335c0.077 0.176 2.163 5.254 4.634 11.263l4.506 10.935 5.658-0.151 4.39-10.633c2.419-5.846 4.467-10.885 4.557-11.225l0.166-0.592-6.374 0.151-2.765 7.219c-1.51 3.968-2.829 7.143-2.906 7.042-0.102-0.101-1.382-3.376-2.867-7.294l-2.701-7.093h-3.226c-2.598 0.025-3.187 0.101-3.072 0.378z"></path>
<path d="M108.493 15.975c0 3.943 0.128 7.647 0.294 8.504 0.563 3.124 2.266 5.279 5.158 6.627 1.664 0.768 1.856 0.806 5.235 0.806 3.302 0 3.61-0.050 5.069-0.718 2.893-1.323 4.736-3.666 5.299-6.702 0.166-0.844 0.294-4.561 0.294-8.504v-6.992h-5.952l-0.077 6.967c-0.077 6.69-0.102 7.043-0.678 8.063-0.832 1.537-2.24 2.205-4.339 2.079-1.869-0.101-2.944-0.731-3.674-2.179-0.435-0.869-0.486-1.739-0.563-7.975l-0.077-6.967h-5.952v6.992h-0.038z"></path>
</svg>
