<!-- Generated by IcoMoon.io -->
<svg version="1.1" xmlns="http://www.w3.org/2000/svg" width="83" height="32" viewBox="0 0 83 32">
<title>specialized</title>
<path d="M13.388 5.956c-0.282-0.236-0.563-0.236-0.892 0.047-1.549 0.567-4.458 2.552-5.162 2.411 1.173-1.607 2.44-3.167 3.895-4.585 0.61-0.851-0.188-1.040-0.282-1.513-0.188-0.614-0.094-1.276 0.094-1.843 0.282-0.473-0.282-0.567-0.61-0.378-3.801 3.97-7.039 7.941-10.042 11.959-0.469 0.614-0.375 1.087-0.047 1.465l1.595 2.032c0.328 0.567 0.845 0.662 1.502 0.236l5.021-3.403c-2.018 3.309-3.942 7.043-5.396 11.58-0.657 1.938 1.173 4.869 3.66 7.941 0.282 0.331 0.845 0 0.469-0.662-2.393-4.49-0.422-11.439 7.274-21.696 0.375-0.425 0.516-0.851 0.235-1.276l-1.314-2.316z"></path>
<path d="M33.191 11.864l0.657-2.552c0.141-0.378 0.422-0.567 0.798-0.614h2.909l0.375-1.182h-0.985l-3.097 0.047c-0.657-0.047-1.173 0.189-1.502 0.945l-1.689 6.617-0.657 2.6c-0.188 0.567-0.047 1.040 0.657 1.229 0.047 0 0.141 0.047 0.188 0.047h3.942l0.328-1.182h-3.003c-0.235-0.189-0.422-0.189-0.328-0.756l0.704-2.789c0.094-0.331 0.282-0.567 0.61-0.567h2.299l0.328-0.993h-2.346c-0.282-0.189-0.328-0.473-0.188-0.851z"></path>
<path d="M37.836 17.064c1.549-6.097 0.61-2.458 2.018-7.752 0.141-0.378 0.422-0.567 0.798-0.614h2.862l0.282-0.945 0.094-0.284h-4.083c-0.657-0.047-1.22 0.189-1.502 0.945l-1.408 5.53-0.938 3.64c-0.188 0.662-0.047 1.134 0.845 1.276h3.942l0.328-1.182h-3.003c-0.141 0-0.328-0.047-0.235-0.614z"></path>
<path d="M22.726 13.471l-2.253-1.985c-0.469-0.567 0-2.694 0.986-2.742h3.332l0.282-1.134h-4.223c-1.314 0.236-2.393 2.978-1.877 4.301l2.299 2.080c0.328 0.378 0.375 0.709 0.375 1.087l-0.657 2.269c-0.141 0.567-0.516 0.567-0.985 0.567h-3.097l-0.282 1.087h4.552c0.704-0.047 1.126-0.473 1.22-1.182l0.751-2.883c0.188-0.662-0.047-1.134-0.422-1.465z"></path>
<path d="M30.328 13.14l0.328-1.371 0.704-2.883c0.094-0.756-0.141-1.182-0.704-1.276-0.094-0.047-0.188-0.047-0.282-0.047h-4.458l-1.924 7.232-1.126 4.207h1.549l2.769-10.257h1.83c0.375 0.095 0.61 0.284 0.61 0.662l-0.751 3.12c-0.094 0.52-0.422 0.851-0.985 1.040l-1.408 0.284-0.235 1.087 3.050-0.567c0.516-0.142 0.939-0.52 1.032-1.229z"></path>
<path d="M46.565 7.563h-1.83l-0.938 3.45-1.032 3.829-1.126 4.16h1.83l0.328-1.276 2.769-10.162z"></path>
<path d="M62.801 7.563h-1.783l-3.144 11.439h1.83l1.971-7.185 1.126-4.254z"></path>
<path d="M70.825 14.275c0.094-0.331 0.282-0.567 0.61-0.567h2.299l0.328-0.993h-2.393c-0.281-0.189-0.328-0.473-0.188-0.851l0.704-2.552c0.141-0.378 0.422-0.567 0.798-0.614h2.91l0.234-0.756 0.141-0.473h-4.035c-0.657-0.047-1.22 0.189-1.502 0.945l-1.69 6.617-0.656 2.6c-0.188 0.567-0.047 1.040 0.656 1.229 0.047 0 0.141 0.047 0.188 0.047h3.942l0.328-1.182h-3.050c-0.234-0.189-0.422-0.189-0.328-0.756l0.704-2.694z"></path>
<path d="M82.37 7.563h-5.397l-0.891 3.214-2.206 8.177h5.491c0.797-0.047 1.267-0.473 1.454-1.276l2.44-9.123c0.094-0.567-0.235-0.945-0.892-0.993zM81.29 9.642l-2.018 7.090c-0.046 0.567-0.422 0.945-1.173 0.993h-1.924c-0.047 0-0.094 0-0.141-0.047-0.188-0.095-0.188-0.331-0.094-0.567l0.094-0.331 2.393-8.177h2.346c0.61 0.047 0.704 0.425 0.516 1.040z"></path>
<path d="M63.176 16.922l5.772-7.421 0.422-0.567c0.517-0.756 0.329-1.323-0.422-1.323 0 0 0 0-0.047 0h-5.255l-0.047 1.040h3.238c0.422 0 0.657 0.189 0.376 0.567l-5.538 7.326-0.938 1.229c-0.375 0.567-0.234 0.993 0.423 1.276h5.724l0.329-1.276h-3.942c-0.376-0.095-0.423-0.567-0.094-0.851z"></path>
<path d="M49.756 7.61l-5.96 11.25-0.094 0.189h1.408l4.693-8.981 0.422 0.047 0.235 2.505c0.188 0.614-0.235 0.567-0.375 0.567h-1.314l-0.235 0.945 1.549 0.047c0.282 0.047 0.422 0.189 0.375 0.473l0.282 4.254h1.595l-0.657-11.344-1.924 0.047z"></path>
<path d="M54.777 16.921l2.534-9.359h-1.83l-2.722 10.068c-0.047 0.567 0.188 1.182 0.938 1.371h3.613l0.376-1.229-2.581-0.047c-0.329-0.047-0.469-0.331-0.329-0.804z"></path>
</svg>
