<!-- Generated by IcoMoon.io -->
<svg version="1.1" xmlns="http://www.w3.org/2000/svg" width="229" height="32" viewBox="0 0 229 32">
<title>tidal</title>
<path d="M83.971 30.389h-5.691v-20.144h-7.434v-4.835h20.559v4.835h-7.434v20.144z"></path>
<path d="M114.286 5.41h-5.808v24.978h5.808v-24.978z"></path>
<path d="M216.037 25.439h9.989v4.95h-15.797v-24.978h5.809v20.029z"></path>
<path d="M139.027 25.554h3.601c4.763 0 8.015-2.993 8.015-7.712 0-4.489-3.252-7.482-7.899-7.482h-3.717v15.194zM133.452 5.41h9.292c6.853 0 13.705 3.568 13.705 12.432 0 8.288-6.736 12.547-13.357 12.547h-9.64v-24.978z"></path>
<path d="M177.589 21.065l3.834-9.784 3.717 9.784h-7.55zM188.625 30.389h6.388l-10.453-24.978h-5.925l-10.453 24.978h6.156l1.859-4.95h10.685l1.743 4.95z"></path>
<path d="M24.89 1.772l-7.391 7.326 7.393 7.324 7.391-7.326-7.393-7.324z"></path>
<path d="M24.873 16.4l-7.392 7.325 7.392 7.325 7.392-7.325-7.392-7.325z"></path>
<path d="M10.133 1.754l-7.392 7.325 7.392 7.325 7.392-7.325-7.392-7.325z"></path>
<path d="M39.65 1.791l-7.391 7.326 7.393 7.324 7.391-7.326-7.393-7.324z"></path>
</svg>
