<!-- Generated by IcoMoon.io -->
<svg version="1.1" xmlns="http://www.w3.org/2000/svg" width="43" height="32" viewBox="0 0 43 32">
<title>virgin</title>
<path d="M8.203 17.812v-0.039c0 0 0 0 0-0.039 0 0 0 0 0-0.039s0-0.039 0-0.077 0.039-0.039 0.039-0.077c0-0.039 0-0.039 0-0.077 0 0 0 0 0-0.039 0 0 0 0 0-0.039 0 0 0 0 0-0.039 0 0 0 0 0-0.039 0 0 0 0-0.039-0.039v-0.039c0-0.077 0.039-0.154 0.039-0.27 0-0.039 0-0.039 0-0.077v-0.039h0.039c0.039 0 0.039-0.039 0.039-0.039 0-0.039 0-0.039 0.039-0.077v-0.039c0 0 0 0-0.039 0v-0.039c0-0.039 0-0.039 0.039-0.039l0.039-0.039c0 0 0 0 0-0.039 0 0 0 0 0-0.039s0-0.039 0-0.039l0.039-0.039c0 0 0 0 0-0.039v-0.039c0-0.039-0.039 0-0.039-0.039s0-0.039 0-0.077v-0.077c0-0.039 0-0.039 0.039-0.077v-0.077c0 0 0 0 0-0.039s0-0.039 0-0.077v-0.039c0 0 0 0 0-0.039v-0.077l0.039-0.039c0-0.039 0-0.039 0-0.077s0-0.039 0-0.039v-0.039c0 0 0-0.039 0.039-0.039v-0.039c0-0.039 0-0.039 0-0.077 0 0 0 0 0-0.039v-0.039c0 0 0 0 0-0.039v-0.077c0-0.039 0-0.077 0.039-0.116 0-0.039 0-0.039 0.039-0.077 0 0 0-0.039 0.039-0.039 0 0-0.039 0-0.039-0.039 0 0 0 0 0.039-0.039 0-0.039 0-0.077 0-0.077s0 0 0-0.039v-0.039c0 0 0 0 0.039-0.039v-0.039c0-0.039 0-0.039 0-0.077 0 0 0 0 0-0.039v-0.077c0-0.039 0-0.039 0-0.077v-0.039h0.039v-0.077c0 0 0 0 0-0.039v-0.077c0 0 0 0 0-0.039 0 0 0 0 0-0.039s0-0.039 0-0.039c0-0.039 0-0.039 0-0.039v-0.039c0 0 0 0 0-0.039v-0.039c0 0 0 0 0-0.039v-0.039c0 0 0 0 0-0.039 0 0 0 0 0-0.039v-0.039c0 0 0 0 0-0.039v-0.039c0 0 0 0 0.039 0 0 0 0 0 0-0.039v-0.039c0 0 0-0.039 0.039-0.039v-0.039c0 0 0 0 0-0.039 0 0 0 0 0-0.039s0-0.077 0-0.077l0.039-0.039c0 0 0-0.039 0-0.077s0-0.039 0-0.077c0.039-0.039 0.039-0.039 0.077-0.077 0 0 0 0 0-0.039 0 0 0 0 0-0.039 0 0 0 0 0-0.039 0 0 0 0 0-0.039v-0.039c0-0.039 0.039-0.039 0.039-0.039v-0.039c0 0 0-0.039 0-0.077s0-0.039 0-0.077 0-0.039 0-0.077l0.039-0.039c0-0.039 0.039-0.039 0.039-0.039h0.039c0 0 0 0 0.039 0l0.039-0.039c0 0 0 0 0-0.039v-0.039c0 0 0 0 0-0.039 0 0 0 0 0-0.039v-0.077c0 0 0 0 0-0.039s0-0.039 0-0.039c0-0.039 0-0.039 0-0.077s0.039-0.039 0.039-0.039c0 0 0 0 0-0.039v-0.039c0-0.039 0-0.039 0-0.077s0-0.039 0-0.077c0 0 0 0 0-0.039v-0.039c0-0.039 0-0.039 0-0.077s0-0.039 0-0.077v-0.039c0 0 0 0 0-0.039v-0.039c0 0 0 0 0-0.039 0 0 0 0 0.039-0.039 0 0 0 0 0-0.039v-0.039c0-0.039 0-0.039 0-0.077 0 0 0.039 0 0.039-0.039s0-0.039 0-0.039v-0.039c0-0.039 0.039-0.077 0.077-0.116s0.039-0.077 0.077-0.116c0.039-0.039 0.039-0.077 0.077-0.154 0 0 0 0 0-0.039v-0.039c0-0.039 0-0.039 0.039-0.077 0-0.039 0.039-0.077 0.039-0.116s0-0.039 0-0.077 0-0.039 0-0.077 0.039-0.039 0.039-0.077v-0.039c0 0 0 0 0.039-0.039 0.039 0 0.039-0.039 0.039-0.039 0-0.039 0-0.077 0.039-0.116h0.039v-0.077c0-0.039-0.039-0.039-0.039-0.077s0-0.077 0-0.077 0 0 0-0.039 0 0 0-0.039 0.039-0.039 0.039-0.077c0-0.039 0-0.039 0-0.077v-0.039c0 0 0-0.039 0.039-0.039l0.039-0.039v-0.077c0 0 0 0 0-0.039 0 0 0-0.039 0-0.077s0.039-0.039 0.039-0.077c0 0 0.039-0.077 0-0.077v-0.077c0-0.039 0 0 0.039 0s0 0 0 0 0 0 0-0.039c0-0.039 0-0.039 0-0.077s0.039-0.077 0.039-0.077v-0.039c0-0.039 0-0.039 0-0.077s0-0.039 0.039-0.077c0-0.039 0-0.039 0.039-0.039s0.039-0.039 0.039-0.077v-0.039c0 0 0 0 0-0.039v-0.077c0 0 0 0 0.039-0.039v-0.039c0 0 0 0 0-0.039 0 0 0-0.039 0.039-0.039v-0.039h0.039v-0.039c0 0 0 0 0-0.039 0 0 0 0 0.039-0.039v-0.039c0-0.039 0-0.039 0-0.077v-0.039c0 0 0 0 0-0.039v-0.039c0 0 0 0 0-0.039v-0.039c0 0 0-0.039 0.039-0.039v-0.039c0-0.039 0-0.039 0.039-0.077 0 0 0 0 0-0.039h0.039c0 0 0 0 0-0.039v-0.039c0 0 0 0 0.039 0v-0.039c0 0 0-0.039 0-0.077v-0.116l0.039-0.039v-0.077c0 0 0-0.039 0.039-0.039 0 0 0 0 0-0.039l0.039-0.039v-0.039c0-0.039 0-0.039 0.039-0.077l0.039-0.039c0-0.039 0.077-0.077 0.077-0.116s0.039-0.039 0.039-0.077v-0.039c0 0-0.039 0 0-0.039 0 0 0.039-0.039 0.039-0.077 0.039-0.039 0-0.039 0.039-0.077l0.039-0.039c0 0 0 0 0-0.039v-0.154c0 0 0.039-0.039 0-0.039 0-0.039 0.039-0.077 0.039-0.077 0-0.039 0.039-0.039 0.039-0.077s0.039-0.077 0.039-0.116c0 0 0-0.039 0.039-0.039v-0.039c0-0.039 0.039-0.039 0.039-0.077v-0.077c0.039 0 0-0.039 0.039-0.039 0 0 0 0 0-0.039s0.039-0.039 0.039-0.077c0 0 0 0 0-0.039 0 0 0 0 0-0.039 0 0 0 0 0.039 0 0 0 0 0 0-0.039s0-0.039 0.039-0.039c0 0 0 0 0-0.039 0.039 0 0.039-0.116 0.077-0.116 0.039-0.077 0.077-0.154 0.116-0.27 0.039-0.039 0.039-0.116 0.077-0.154 0 0-0-0.039 0.039-0.039 0 0 0 0 0-0.039s0.039-0.077 0.039-0.077v-0.039c0-0.039 0-0.039 0.039-0.077s0.039-0.077 0.039-0.116c0 0 0 0 0-0.039 0 0 0 0 0-0.039 0 0 0-0.039 0.039-0.039v-0.039c0 0 0-0.039 0.039-0.039v-0.039c0-0.039 0.039-0.039 0.039-0.077 0 0 0 0 0-0.039s0.039-0.039 0.039-0.077c0-0.039 0.039-0.039 0.039-0.077 0 0 0.039 0 0.039-0.039 0 0 0-0.039 0.039-0.039 0-0.039 0-0.116 0.039-0.116v-0.039l0.039-0.039c-0.039-0.039 0-0.039 0.039-0.077 0 0 0.039 0 0.039-0.039v-0.039c0-0.039 0.039-0.039 0.039-0.077s0-0.039 0.039-0.077c0 0 0 0 0.039-0.039 0-0.039 0.039-0.039 0.039-0.077 0.039-0.039 0.077-0.077 0.116-0.154 0 0 0-0.039 0.039-0.039h0.039c0 0 0-0.039 0.039-0.039 0-0.039 0-0.039 0.039-0.039l0.116-0.116c0 0 0-0.039 0.039-0.039 0 0 0.039 0 0.039-0.039v-0.039c0 0 0 0 0-0.039 0 0 0 0 0-0.039 0 0 0 0 0.039-0.039 0 0 0 0 0-0.039h0.039c0 0 0 0 0-0.039h0.039c0 0 0 0 0-0.039h0.039c0 0 0.039-0.039 0.039-0.077 0.039 0 0.039 0 0.077 0s0-0.039 0.039-0.039c0 0 0 0 0.039 0 0 0 0 0 0-0.039 0 0 0 0 0-0.039 0 0 0 0 0-0.039 0 0 0 0 0.039 0 0 0 0 0 0 0.039 0 0 0 0 0 0.039h0.039c0 0 0 0 0-0.039 0 0 0 0 0.039-0.039v-0.077h0.039v-0.039c0 0 0.039 0 0 0 0 0 0 0 0 0.039h0.039c0 0 0 0 0-0.039 0 0 0 0 0.039 0 0 0 0 0 0.039 0 0 0 0 0 0-0.039 0 0 0 0 0-0.039v-0.039c0 0 0 0 0-0.039 0 0 0.039 0.039 0.039 0v-0.039c0 0 0 0 0-0.039s0-0.039 0-0.077 0-0.039 0-0.077l0.039-0.039c0 0 0 0 0.039 0 0 0-0.039-0.039 0-0.039 0 0 0 0 0-0.039 0 0 0 0 0.039 0 0 0 0 0 0-0.039 0 0 0 0 0-0.039 0 0 0 0 0-0.039l0.077-0.077c0 0 0 0 0-0.039 0 0 0-0.039 0.039-0.039 0 0 0 0 0-0.039l0.039-0.039v-0.039c0 0 0 0 0-0.039 0 0 0 0 0-0.039v-0.039c0 0 0 0 0-0.039 0 0 0-0.039 0-0.077s0-0.039 0-0.077c0 0 0 0 0-0.039 0 0 0 0 0-0.039 0 0 0 0 0-0.039 0 0 0 0 0-0.039 0 0 0-0.039 0-0.077s0-0.077 0-0.116v-0.154c0-0.039 0-0.039 0-0.077s0-0.039-0.039-0.039v-0.039c0 0 0 0 0-0.039v-0.077c0 0 0 0 0-0.039v-0.039c0-0.039-0.039-0.039-0.039-0.039v-0.039c0 0 0 0-0.039-0.039 0 0 0 0 0-0.039s-0.039-0.039-0.039-0.077v-0.039c0 0 0 0-0.039-0.039s-0.039-0.077-0.077-0.116l-0.039-0.039c0 0 0 0 0-0.039 0 0 0 0-0.039 0 0 0-0.039 0-0.039-0.039 0 0 0 0 0-0.039h-0.039c0 0 0 0-0.039 0l-0.039-0.039c0 0 0 0-0.039 0 0 0-0.039 0-0.039-0.039-0.039 0-0.039-0.039-0.077-0.039s-0.039 0-0.077-0.039c-0.039 0-0.039 0-0.077 0 0 0 0 0-0.039 0l-0.039-0.039c-0.039 0-0.039 0-0.077 0s-0.039 0-0.077 0-0.039 0-0.077 0-0.039 0-0.077 0h-0.116c0 0 0 0-0.039 0s-0.077 0-0.077 0-0.077 0-0.077 0-0.039 0.039-0.077 0.039c-0.039 0-0.039 0-0.077 0.039-0.039 0-0.039 0.039-0.077 0.039-0.116 0.039-0.231 0.154-0.347 0.231 0.694 0.81 0.655 0.81 0.617 0.848 0 0 0 0 0 0.039h-0.039c0 0-0.039 0.039 0 0.039-0.039 0-0.039 0.039-0.039 0.039 0 0.039-0.039 0-0.039 0.039 0 0 0 0.039-0.039 0.039-0.039 0.039-0.039 0.039-0.077 0.077s-0.039 0.039-0.077 0.077-0.077 0.116-0.116 0.154c0 0.039-0.039 0.077-0.039 0.116-0.039 0-0.077 0.116-0.116 0.154s-0.039 0.116-0.077 0.154-0.077 0.231-0.154 0.347c-0.039 0.077-0.039 0.116-0.077 0.193s-0.077 0.116-0.077 0.193-0.039 0.154-0.077 0.231c-0.039 0.077-0.039 0.154-0.077 0.193-0.039 0.116-0.116 0.231-0.154 0.347-0.039 0.077-0.039 0.116-0.077 0.193s-0.039 0.116-0.077 0.193-0.077 0.27-0.116 0.386c0 0.039-0.039 0.077-0.077 0.116 0 0.039-0.039 0.116-0.039 0.154-0.039 0.077-0.077 0.193-0.116 0.27-0.039 0.116-0.077 0.231-0.116 0.308-0.039 0.154-0.116 0.27-0.154 0.424 0 0.039-0.039 0.116-0.077 0.154 0 0.077-0.039 0.116-0.077 0.193s-0.077 0.154-0.077 0.231c-0.039 0.077-0.039 0.193-0.077 0.27-0.039 0.116-0.077 0.193-0.116 0.308s-0.077 0.27-0.116 0.386c-0.116 0.308-0.231 0.617-0.308 0.925 0 0.039 0 0.039-0.039 0.077 0 0.039 0 0.039-0.039 0.077 0 0.039-0.039 0.039-0.039 0.077-0.039 0.039-0.039 0.039-0.039 0.077 0 0.077-0.039 0.116-0.039 0.193 0 0.116-0.039 0.154-0.077 0.27 0 0.039-0.039 0.077-0.039 0.154-0.039 0.077-0.116 0.154-0.116 0.27 0 0.077-0.039 0.116-0.077 0.193 0 0.077-0.039 0.116-0.039 0.193 0 0.039-0.039 0.116-0.039 0.154-0.039 0.039-0.039 0.116-0.077 0.154-0.039 0.077 0 0.116-0.039 0.193s-0.077 0.116-0.077 0.193 0 0.116 0 0.193c0 0.039-0.039 0.077-0.039 0.077 0 0.039-0.039 0.077-0.039 0.116s0 0.077 0 0.116c0 0.039-0.039 0.077-0.039 0.116-0.039 0.154-0.077 0.347-0.154 0.501-0.039 0.077-0.039 0.154-0.077 0.27-0.039 0.077-0.077 0.154-0.077 0.231-0.039 0.154-0.077 0.347-0.116 0.501 0 0.077-0.039 0.116-0.039 0.193 0 0.039 0 0.077 0 0.077 0 0.039-0.039 0.077-0.039 0.116s0 0.077-0.039 0.116-0.077 0.154-0.077 0.231c-0.039 0.193-0.116 0.347-0.154 0.501s-0.077 0.27-0.116 0.424c0 0.077 0 0.116-0.039 0.193 0 0.077-0.039 0.154-0.077 0.193 0 0.039-0.039 0.077-0.039 0.154 0 0.039 0 0.039 0 0.077s-0.039 0.039-0.039 0.039c0 0.039 0 0.077 0 0.116-0.039 0.039 0 0.077-0.039 0.116 0 0.077-0.039 0.154-0.077 0.27s-0.077 0.27-0.116 0.386c0 0.077-0.039 0.154-0.039 0.193-0.039 0.116-0.039 0.27-0.077 0.386 0 0.077-0.039 0.116-0.039 0.193s-0.039 0.116-0.039 0.193c0 0.039-0.039 0.154-0.039 0.193-0.039 0.039-0.039 0.116-0.039 0.193s0 0.116-0.039 0.193c-0.039 0.077-0.039 0.193-0.077 0.27 0 0.077-0.039 0.154-0.039 0.231s-0.039 0.116-0.039 0.193-0.039 0.193-0.039 0.308c-0.039 0.193-0.077 0.386-0.116 0.578 0 0.077-0.039 0.154-0.039 0.27s-0.039 0.27-0.077 0.386c0 0.039-0.039 0.077-0.039 0.154 0 0.116-0.039 0.193-0.039 0.308-0.039 0.193-0.039 0.386-0.116 0.54 0 0.077-0.039 0.154-0.039 0.193-0.039 0.231-0.077 0.501-0.116 0.733 0 0.116-0.039 0.231-0.039 0.347 0 0.077 0 0.116 0 0.193 0 0.039 0 0.077 0 0.116l-0.039 0.039c0 0 0 0.039 0 0.077 0 0.077-0.039 0.154-0.039 0.231 0 0 0 0-0.039 0 0 0.039 0 0.039 0 0.077-0.039 0 0 0.039-0.039 0.077-0.039 0-0.039-0.039-0.039-0.039-0.039-0.039-0.039-0.039-0.077-0.039 0-0.039 0-0.039-0.039-0.077 0-0.039 0-0.039 0-0.039 0-0.039 0.039-0.116 0-0.154 0-0.039-0.039-0.039-0.039-0.077s0.039-0.039 0-0.077c0-0.077-0.039-0.077-0.116-0.077 0-0.039 0.039-0.039 0.039-0.039 0-0.039 0-0.039 0-0.077s0-0.077 0-0.154c0-0.039 0-0.077 0-0.116s-0.039-0.077-0.039-0.116c0-0.039-0.039-0.077-0.039-0.116l0.039-0.039c0-0.039 0-0.039 0-0.077 0-0.077 0.039-0.039 0.039-0.116-0.039-0.116 0-0.077 0-0.154 0-0.039 0-0.077-0.039-0.116l-0.039-0.039c-0.039 0 0-0.039-0.039-0.039 0 0 0 0 0-0.039h0.039c0 0 0 0-0.039 0-0.039 0.039-0.039 0-0.039-0.039v-0.039c0 0-0.039 0 0-0.039l0.077-0.039h-0.039c0 0.039-0.039 0-0.039 0v-0.077c0-0.039 0-0.039 0-0.077s0-0.039 0-0.039l0.039-0.039c0-0.039 0-0.039 0-0.039-0.039-0.039 0 0 0-0.039v-0.116c0 0 0 0 0-0.039v-0.039c0-0.039 0-0.077 0-0.077 0-0.039-0.039-0.039-0.039-0.077s0-0.039 0-0.077l-0.039-0.039v-0.039c0 0-0.039-0.039 0-0.039 0-0.039 0-0.039 0-0.039v-0.039c0 0 0-0.039-0.039-0.039v-0.039c0-0.039-0.039-0.077-0.039-0.116s0-0.077 0-0.116c0-0.039 0-0.077 0-0.116v-0.077c0 0 0-0.039-0.039-0.039l-0.039-0.039c0-0.039 0-0.077-0.039-0.077v-0.116c0 0-0.039-0.039 0-0.039h0.039v-0.039c0-0.039-0.039-0.077-0.039-0.077-0.039-0.039-0.039-0.039-0.039-0.077s0-0.039 0-0.077 0-0.039 0-0.077 0-0.039 0-0.077 0-0.039-0.039-0.039c0-0.039 0-0.039 0-0.077l-0.039-0.039c-0.039-0.039-0.039-0.077-0.039-0.116v-0.039c0 0-0.039 0-0.039-0.039s0.039 0 0-0.039 0 0-0.039 0v-0.039c0-0.039 0-0.039 0-0.039s0.039-0.039 0-0.039-0.039-0.039-0.039-0.039-0.039 0-0.039-0.039 0-0.039 0-0.077 0-0.039 0-0.077v-0.039c0-0.039 0-0.039 0-0.077v-0.039h-0.039c0-0.077-0.039-0.154-0.039-0.231 0-0.039 0-0.039 0-0.039 0-0.039 0-0.039-0.039-0.039-0.039-0.039-0.039-0.077-0.039-0.116s0-0.039 0-0.077 0-0.039 0-0.077v-0.039c0 0 0.039 0 0.039-0.039h-0.039c0 0 0 0 0-0.039 0 0 0 0 0-0.039 0 0 0 0 0-0.039 0 0 0-0.039 0-0.077v-0.039c0 0 0 0 0-0.039v-0.077c0 0 0 0 0-0.039 0 0 0.039-0.039 0-0.039 0-0.039 0-0.039 0-0.039s0 0 0-0.039v-0.039c0-0.039 0-0.039 0.039-0.039 0 0 0.039 0 0.039-0.039 0 0 0 0 0-0.039v-0.116c0 0-0.039 0-0.039-0.039 0 0 0.039 0 0.039-0.039 0 0 0 0 0-0.039 0 0 0.039 0 0.039-0.039 0 0 0 0-0.039-0.039-0.039 0-0.039 0-0.077-0.039 0-0.039 0-0.039 0-0.077s0.039-0.039 0.039-0.039 0 0 0-0.039c0 0 0 0-0.039-0.039v-0.077h0.039c0-0.039 0-0.039-0.039 0h-0.039v-0.039c0 0 0 0 0.039 0v-0.039c0 0 0 0-0.039 0 0 0-0.039-0.077 0-0.077 0 0 0 0 0.039 0 0 0 0 0 0-0.039 0 0 0 0 0-0.039 0 0-0.039 0-0.039-0.039s0-0.039 0-0.077v-0.039c0 0 0 0 0-0.039s-0.039-0.039-0.039-0.077c0-0.039 0-0.039 0-0.077v-0.039c0 0 0 0 0-0.039v-0.039c0 0 0 0 0-0.039 0 0 0 0 0-0.039s-0.039-0.077 0-0.116c0-0.039 0-0.039 0-0.077s0-0.039 0-0.077 0-0.039 0-0.077v-0.077c0-0.039 0-0.039 0-0.077v-0.039c0 0 0 0-0.039-0.039 0-0.039 0-0.039 0-0.077 0 0 0 0 0-0.039s0-0.039 0-0.077 0-0.039-0.039-0.077v-0.116c0 0 0 0 0-0.039 0 0 0 0 0-0.039 0 0 0 0 0-0.039s0-0.039 0-0.077 0-0.039 0-0.077v-0.077c0-0.039 0-0.039 0-0.077s0-0.039 0-0.077v-0.077c0-0.039 0-0.039 0-0.077v-0.077c0-0.039 0-0.116-0.039-0.154 0-0.039 0-0.039 0-0.077s0-0.039-0.039-0.077c0-0.039-0.039-0.116-0.039-0.154s0-0.039-0.039-0.039v-0.039c0 0 0 0 0-0.039v-0.039c0-0.039-0.039-0.039-0.039-0.077 0 0 0 0 0-0.039v-0.039l-0.039-0.039c0 0 0-0.039-0.039-0.039l-0.116-0.116c-0.039-0.039-0.077-0.039-0.077-0.039h-0.039c-0.039 0-0.039 0-0.077-0.039h-0.039c-0.039 0-0.077 0-0.116 0s-0.077 0-0.077 0c0 0 0 0-0.039 0h-0.039c-0.039 0-0.039 0-0.077 0s-0.039 0-0.077 0-0.039 0-0.077 0.039h-0.039c0 0 0 0-0.039 0.039h-0.039c-0.039 0-0.039 0-0.077 0.039-0.039 0-0.039 0.039-0.039 0.039-0.039 0.039-0.077 0.039-0.116 0.077s-0.077 0.039-0.077 0.077-0.077 0.077-0.077 0.154c-0.039 0.077-0.077 0.116-0.077 0.193-0.039 0.077-0.039 0.154-0.077 0.231v0.039l-0.039 0.039c0 0.039 0 0.077-0.039 0.116 0 0 0 0.039-0.039 0.039v0.039c0 0.039-0.039 0.039-0.039 0.077v0.039c0 0 0 0 0 0.039 0 0 0 0 0 0.039-0.039 0.077-0.039 0.154-0.077 0.231 0 0.039 0 0.039-0.039 0.039v0.039c0 0.039-0.039 0.077-0.039 0.116s-0.039 0.077-0.039 0.077c-0.039 0.116-0.077 0.27-0.116 0.386 0 0.039-0.039 0.077-0.077 0.116-0.308 0.154-0.308 0.154-0.308 0.231 0 0.039-0.039 0.077-0.039 0.154 0 0.039-0.039 0.077-0.039 0.116-0.039 0.039-0.039 0.077-0.039 0.116s-0.039 0.077-0.039 0.116c0 0.039 0 0.077 0 0.116s-0.039 0.116-0.039 0.154c-0.039 0.077-0.039 0.154-0.077 0.231s-0.039 0.154-0.077 0.231c0 0.077 0 0.077-0.039 0.116s-0.039 0.077-0.039 0.116c-0.039 0.039-0.077 0.077-0.077 0.116s0 0.077-0.039 0.116-0.077 0.154-0.077 0.27c0 0.077-0.077 0.116-0.116 0.193 0 0.039-0.039 0.077-0.039 0.116 0 0.077 0 0.077 0 0.154-0.039 0.039-0.039 0.116-0.077 0.154 0 0-0.116 0.077-0.039 0.077-0.039 0.039-0.077 0.039-0.039 0.116l-0.039 0.077c0 0.039 0 0.077 0 0.116-0.039 0.116-0.077 0.193-0.116 0.308s-0.116 0.231-0.154 0.347c0 0 0 0 0.039 0 0 0.039 0 0.077-0.039 0.116 0 0.039-0.039 0.077-0.039 0.116s0 0.039 0 0.077l-0.039 0.039c0 0.039 0 0.077-0.039 0.116 0 0.039 0 0.077-0.039 0.077 0 0.039 0 0.077-0.039 0.116 0 0.077-0.039 0.116-0.077 0.193s-0.039 0.116-0.077 0.193c-0.039 0.154-0.077 0.308-0.077 0.463 0 0.077 0.039 0.154 0.077 0.231 0.077 0.116 0.154 0.231 0.27 0.27 0.039 0.039 0.116 0.039 0.154 0.077 0.039 0 0.039 0 0.077 0s0.039 0 0.077 0 0.077 0 0.077 0 0.039 0 0.077 0 0.077 0 0.077 0h0.039c0 0 0.039 0 0.039-0.039h0.039c0 0 0 0 0.039-0.039 0.039 0 0.039 0 0.077-0.039s0.116-0.039 0.154-0.077 0.039-0.039 0.077-0.077c0 0 0.039 0 0.039-0.039 0 0 0-0.039 0.039-0.039 0.039-0.039 0.077 0.039 0.077 0s0-0.039 0-0.039c-0.039-0.039 0-0.077 0-0.116s0-0.039 0.039-0.039 0.039-0.039 0-0.077v-0.039c0 0 0.039 0 0-0.039 0 0 0.039 0 0.039-0.039s0-0.039 0-0.077c-0.039 0.077-0.039 0.077-0.039 0.039 0 0 0-0.039 0-0.077s0.039-0.039 0.039-0.077l0.039-0.039c0 0-0.039 0 0-0.039 0-0.039 0.039-0.039 0.077-0.077v-0.039c0 0 0.039 0 0.039-0.039s0-0.039 0-0.039v-0.039c0-0.039 0.039-0.077 0.039-0.116l0.039-0.039c0 0 0.039 0 0.039-0.039s-0.039 0-0.039 0v-0.039c0 0 0 0 0.039 0v-0.077c0 0 0 0 0.039 0 0 0 0 0 0-0.039v-0.039c0 0 0 0 0.039-0.039 0 0 0.039 0 0 0s0-0.039 0-0.039l0.039-0.039v-0.039c0 0 0 0 0-0.039 0 0 0 0 0-0.039s0.039 0 0.039-0.039c0 0 0 0 0-0.039 0 0 0 0-0.039 0 0 0 0 0-0.039 0v-0.039c0 0 0-0.039 0.039 0 0 0 0 0 0.039 0 0 0 0 0 0-0.039 0 0-0.039 0 0 0 0 0 0 0 0.039 0 0 0 0 0 0-0.039 0 0 0 0 0-0.039 0 0 0 0 0-0.039v-0.039c0 0 0 0 0.039 0 0 0 0 0 0-0.039 0 0 0 0-0.039 0s0 0 0-0.039v-0.039c0 0 0 0 0.039 0 0 0 0 0 0-0.039s0-0.039 0.039-0.039v-0.039h0.039v-0.039c0 0 0 0 0-0.039 0 0 0-0.039 0-0.077 0 0 0 0 0-0.039v-0.077c0 0 0 0-0.039 0 0 0 0 0 0-0.039 0 0 0.039 0 0 0 0 0 0 0 0-0.039 0 0 0.039 0 0.039-0.039l0.039-0.039c0 0 0 0-0.039 0 0 0 0 0 0-0.039s0 0 0.039 0 0-0.039 0-0.039c0 0 0 0 0-0.039 0 0 0.039-0.039 0-0.077 0 0 0 0.039 0 0 0 0 0 0 0-0.039 0 0 0 0 0-0.039v-0.039h0.077c0 0 0 0 0 0.039 0-0.039-0.039 0-0.039-0.039 0 0 0 0-0.039 0v-0.039c0 0 0 0 0-0.039v-0.039c0 0 0.039 0.039 0.077 0.039 0 0 0 0 0-0.039v-0.116c0 0 0 0 0.039 0 0 0 0 0 0-0.039 0 0 0 0 0-0.039 0 0 0 0 0-0.039l0.039-0.039c0 0 0 0 0-0.039l0.039-0.039h0.039c0 0 0 0 0 0.039 0 0 0 0 0.039 0 0 0 0 0 0.039 0 0 0 0 0 0.039 0 0 0 0 0 0 0.039 0 0 0 0.039 0.039 0.039 0 0 0 0 0.039 0 0 0 0.039 0 0 0v0.039c0 0 0 0 0 0.039 0 0-0.039 0.039 0 0.039 0 0 0 0 0 0.039l0.077-0.077c0.039 0 0.039 0 0.039 0.039s0 0.039-0.039 0.039h-0.039c0 0 0 0 0 0.039v0.077c0 0-0.039 0 0 0.039 0 0 0.039 0 0.039 0.039v0.116c0 0.039 0.039 0 0.039 0.039s0 0.039 0 0.039c-0.039 0.039 0 0.077 0 0.116l0.039 0.039c0 0 0 0 0.039 0v0.039c0 0 0 0 0 0.039 0 0 0 0 0 0.039 0 0 0 0 0.039 0 0 0 0 0 0 0.039s0 0.077 0 0.116c0 0.039 0 0.039-0.039 0.077l0.039-0.039c0 0.039 0 0.077 0 0.116s0 0.039 0 0.039v0.039c0 0.039 0 0.077 0 0.116s0 0.077 0 0.077 0 0.039 0 0.077v0.039c0 0.039 0 0.077 0.039 0.116 0 0.039 0 0.077 0 0.116s0 0.039 0 0.077v0.039c0 0 0 0 0 0.039v0.039c0 0.039 0 0.077 0 0.077 0 0.039 0 0.077 0 0.077 0 0.039 0 0.039 0 0.077s0 0.039 0 0.077 0 0.039 0 0.039c0 0.039 0 0.077 0 0.116 0 0 0 0 0 0.039 0 0 0 0 0 0.039v0.039c0 0.039 0 0.077 0 0.116v0.039c0 0 0 0 0 0.039 0.039 0 0 0.116 0.039 0.077v0.039c0 0 0.039 0 0.039 0.039 0 0 0 0.039 0 0.077s0 0.077 0 0.154c0 0.039 0 0.077 0 0.116v0.154c0 0.039 0 0.077 0 0.116 0 0.077 0.039 0.154 0.039 0.231v0.077c0 0.039 0 0.039 0 0.077s0 0.039 0 0.039c0 0.039 0 0.077 0 0.116s0 0.039 0 0.039c0 0.039 0 0.077 0 0.116s0 0.039 0 0.039v0.039c0 0 0 0 0 0.039v0.039c0 0.039 0 0.077 0 0.116v0.039c0 0.039 0 0.039 0 0.039 0 0.039 0 0.077 0 0.116v0.116c0 0.039 0 0.039 0 0.039 0 0.039 0 0.077 0.039 0.116 0 0.039 0 0.077 0 0.116s0 0.077 0 0.077v0.039c0 0.039 0 0.039 0 0.077s0 0.039 0 0.077 0 0.077 0 0.077 0 0.077 0.039 0.077v0.077c0 0.039 0.039 0.039 0.039 0.039v0.039c0 0.039 0 0.039 0 0.039v0.039c0 0 0 0 0 0.039s0 0.039 0 0.039 0 0 0 0.039c0 0 0 0 0 0.039 0 0 0 0.039 0 0.077v0.039c0 0 0 0 0 0.039s0 0.039 0 0.077 0 0.039 0.039 0.077v0.039c0 0 0 0 0 0.039v0.039c0 0.039 0 0.039 0 0.077-0.039 0 0 0 0 0.039v0.154c0 0 0 0 0 0.039s0 0.039 0 0.077 0 0.039 0 0.077c0 0 0 0 0 0.039v0.116c0 0.039 0 0.039 0 0.077 0 0 0 0 0.039 0.039v0.231c0 0 0 0 0 0.039v0.077c0 0 0 0 0 0.039 0 0 0 0 0 0.039s0 0.077 0.039 0.077v0.116c0 0 0 0.039 0 0.077v0.039c0 0 0 0 0 0.039 0 0 0 0 0 0.039v0.077c0 0.039 0 0.039 0 0.039s-0.039 0.039 0 0.039v0.039c0 0 0 0 0 0.039v0.039c0 0.039 0 0.039 0 0.039s0 0 0.039 0c0 0 0 0 0.039 0l0.039 0.039v0.039c0 0 0 0 0 0.039 0 0 0 0 0 0.039 0 0 0 0 0 0.039s0 0.039-0.039 0.039c0 0 0 0-0.039 0h-0.039c0 0 0.039 0 0 0 0 0-0.039 0 0 0.039 0 0 0 0 0.039 0 0 0 0 0 0.039 0 0 0 0 0 0.039 0h0.039v0.039c0 0.039 0 0.039 0 0.077s0 0.039 0 0.077 0 0.039 0 0.077 0 0.039 0 0.077v0.039c0 0 0 0 0 0.039 0 0 0 0 0 0.039 0 0 0 0 0 0.039 0 0 0 0 0 0.039v0.039h-0.039l0.039 0.039c0 0 0 0 0 0.039v0.077c0 0 0 0 0 0.039 0 0 0 0 0 0.039 0 0 0 0 0 0.039v0.039c0 0.039 0 0.039 0 0.077v0.039c0 0 0 0 0 0.039 0 0 0 0.039 0 0.077 0 0 0 0 0.039 0v0.039c0 0.039 0.039 0.039 0.039 0.039 0 0.039 0 0.039 0 0.077 0 0 0 0 0 0.039v0.039c0 0 0 0.039 0 0 0 0.039 0 0.039 0 0.077s0 0.039 0 0.077 0 0.039 0 0.077v0.116c0 0 0 0 0 0.039 0 0 0 0 0 0.039 0 0 0 0 0.039 0.039v0.039c0 0 0 0 0 0.039s0 0.077 0 0.116c0 0.039 0 0.077 0.039 0.116 0 0.039 0 0.039 0 0.039 0 0.039 0 0.039 0 0.039v0.077c0 0 0 0 0 0.039v0.039c0 0 0 0 0 0.039s0 0.039 0 0.077 0 0.039 0 0.077c-0.039 0 0 0 0 0.039v0.116c0 0 0 0 0 0.039s0 0.039 0.039 0.039v0.077c0 0 0 0.039 0 0.077 0 0 0 0 0 0.039 0 0 0 0 0 0.039v0.077c0 0 0 0 0 0.039s0 0.039 0 0.077v0.039c0 0 0 0 0 0.039v0.077c0 0 0 0 0 0.039 0 0 0 0.039 0 0.077v0.116c0 0.039 0 0.039 0.039 0.077 0 0 0 0 0 0.039 0 0 0 0 0 0.039s0 0.039 0.039 0.077c0 0 0 0 0 0.039v0.039c0 0 0 0 0 0.039v0.039c0 0.039 0.039 0.039 0.039 0.077 0 0 0 0 0.039 0l0.039 0.039c0 0 0 0 0.039 0.039v0.039c0 0 0 0 0.039 0.039l0.039 0.039h0.039c0 0 0 0 0.039 0.039 0.039 0 0.039 0 0.039 0 0.039 0 0.039 0.039 0.077 0.039h0.077c0.039 0 0.039 0 0.077 0h0.077c0.039 0 0.039 0 0.077 0h0.077c0.039 0 0.039 0 0.077-0.039l0.116-0.039c0 0 0 0 0-0.039h0.039c0 0 0 0 0.039-0.039h0.077c0 0 0 0 0.039 0l0.077-0.077c0 0 0 0 0.039-0.039 0 0 0 0 0.039-0.039v-0.039c0 0 0 0 0.039-0.039v-0.039c0 0 0 0 0-0.039 0 0 0 0 0-0.039v-0.039c0-0.039 0-0.039 0.039-0.077 0-0.039 0-0.039 0-0.077 0 0 0 0 0-0.039v-0.039c0-0.039 0-0.039 0-0.077 0 0 0 0 0-0.039v-0.039c0-0.039 0-0.039 0-0.077v-0.077c0-0.039 0-0.077 0.039-0.116 0-0.039 0 0 0.039-0.039 0 0 0 0-0.039 0v-0.039c0-0.039 0-0.039 0-0.077 0 0 0-0.039 0-0.077v-0.077c0 0 0 0 0.039 0 0 0 0 0 0-0.039s0-0.039 0-0.077 0-0.039 0-0.077 0-0.039 0-0.077 0-0.039 0-0.077v-0.039c0-0.039 0-0.039 0-0.077v-0.154c0-0.039 0-0.039 0-0.077s0-0.039 0-0.077c0 0 0 0 0-0.039 0 0 0 0 0-0.039 0 0 0 0 0-0.039v-0.039c0-0.039 0-0.039 0-0.077 0 0 0 0 0-0.039v-0.116c0 0 0 0 0-0.039v-0.039c0 0 0 0 0-0.039v-0.154c0 0 0 0 0-0.039s0-0.039 0-0.077 0-0.039 0-0.077 0-0.039 0-0.077 0-0.039 0-0.077v-0.077c0-0.039 0-0.039 0-0.077 0 0 0 0 0-0.039s0-0.039 0-0.077 0-0.039 0-0.077c0 0 0 0 0-0.039v-0.077c0 0 0 0 0-0.039 0 0 0 0 0-0.039v-0.039c-0.039 0 0-0.039 0-0.039 0-0.039 0-0.039 0-0.077v-0.116c0-0.039 0-0.039 0-0.077v-0.039c0 0 0 0 0-0.039s0-0.039 0-0.077 0-0.039 0-0.077 0-0.039 0-0.077v-0.039c0 0 0 0 0-0.039s0-0.039 0-0.077v-0.116c0-0.039 0-0.039 0-0.077v-0.039c0 0 0-0.039 0 0 0-0.039 0-0.039 0-0.077 0 0 0-0.039 0-0.077s0-0.039 0-0.077v-0.039c0 0 0 0 0-0.039 0 0 0 0 0-0.039 0 0 0 0 0-0.039s0-0.039 0-0.077 0-0.039 0-0.077 0-0.039 0-0.077 0-0.039 0-0.077v-0.077c0-0.039 0-0.039 0-0.077 0 0 0 0 0-0.039v-0.039c0-0.039 0-0.039 0-0.077s0-0.039 0-0.077 0.039-0.039 0-0.039 0 0 0-0.039v-0.039c0-0.039 0-0.039 0-0.077 0 0 0 0 0-0.039v-0.27c0-0.039 0-0.039 0-0.077s0.039-0.039 0.039-0.077c0-0.039 0-0.039 0-0.077 0 0 0 0 0-0.039v-0.039c0 0 0 0 0-0.039v-0.039c0 0 0 0 0.039 0 0 0 0 0 0-0.039 0 0 0 0 0-0.039 0 0 0 0 0-0.039 0 0 0 0 0-0.039 0 0 0 0 0-0.039s0-0.039 0-0.077v-0.039c0 0 0-0.039 0.039-0.039h0.077l0.039-0.039c0 0 0 0 0-0.039 0 0 0 0 0-0.039 0 0 0 0 0-0.039 0 0 0 0 0-0.039h-0.039c1.966 0.501 1.966 0.501 1.966 0.463v-0.039c0 0 0 0 0-0.039 0 0 0 0 0-0.039 0 0 0 0 0-0.039v-0.039c0 0 0 0 0-0.039 0 0 0-0.039 0.039-0.039 0 0 0-0.039 0-0.077s0-0.039 0-0.077 0-0.039 0-0.077 0-0.039 0-0.077 0-0.039 0-0.077 0-0.039 0-0.077c0 0 0 0 0-0.039v-0.039c0-0.039 0-0.039 0-0.039s0 0 0-0.039v-0.039c0-0.039 0.039 0 0.039-0.039v-0.039c0 0 0.039 0 0.039-0.039 0 0 0-0.039 0-0.077l0.039-0.039v-0.077c0 0 0 0 0.039 0 0 0 0-0.039 0-0.077s0-0.039 0-0.039v-0.039c0 0 0 0 0-0.039v-0.077h-0.039v-0.077c0 0 0 0 0-0.039-0.039 0 0 0-0.039 0 0 0-0.039 0-0.039-0.039v-0.039c0 0 0 0 0-0.039 0 0 0 0 0-0.039 0 0 0 0 0-0.039s0-0.039 0-0.039 0 0 0-0.039c0 0 0 0 0-0.039v-0.039c0 0 0 0 0-0.039 0 0 0 0 0-0.039 0 0 0 0 0-0.039 0 0 0 0 0-0.039 0 0 0 0 0-0.039 0 0 0 0 0-0.039 0 0 0 0 0-0.039v-0.039c0 0 0 0 0-0.039v-0.039c0 0 0 0 0-0.039v-0.077c0 0 0 0 0.039 0 0 0 0 0 0-0.039 0 0 0-0.039 0-0.077s0-0.039 0-0.077c0 0 0 0 0-0.039v-0.039c0 0 0 0 0-0.039h0.039l-0.039-0.039v-0.039c0 0 0 0 0-0.039v-0.039c0 0 0 0-0.039-0.039 0 0 0 0 0-0.039 0 0 0 0 0-0.039s0-0.039 0.039-0.039c0 0 0 0 0-0.039 0.039-0.039 0.039-0.077 0-0.116 0 0 0-0.039 0-0.077v-0.039c0 0 0 0 0-0.039v-0.039l0.039-0.039-0.039-0.039v-0.039c0-0.039 0-0.039 0-0.039 0-0.039 0-0.077 0.039-0.116l0.039-0.039v-0.077c0 0 0 0 0-0.039s0-0.039 0.039-0.039v-0.039c0 0 0 0 0-0.039v-0.039c0 0 0 0 0-0.039 0 0 0 0 0-0.039 0 0 0 0 0-0.039v-0.077c0 0 0 0 0.039 0 0.385 0.077 0.424 0.077 0.463 0.039-0.039 0-0.039 0.039 0 0 0 0-0.039 0 0 0z"></path>
<path d="M14.295 14.303c0 0-0.039 0 0 0-0.039 0-0.039 0 0 0-0.077 0-0.116 0-0.154 0.039-0.039 0-0.077 0.039-0.116 0.039 0 0-0.039 0-0.039 0.039h-0.039c-0.039 0-0.039 0-0.039 0.039 0 0-0.039 0-0.039 0.039l-0.039 0.039c0 0-0.039 0-0.039 0.039 0 0 0 0-0.039 0-0.039 0.039-0.116 0.077-0.154 0.116s-0.039 0.039-0.077 0.077-0.039 0.039-0.039 0.077c0 0 0 0.039-0.039 0.039 0 0.039-0.039 0.039-0.039 0.077s-0.039 0.077-0.039 0.116c0 0.039-0.039 0.077-0.039 0.116v0.039c-0.039 0.039-0.039 0.077-0.039 0.116s0 0.077-0.039 0.116c0 0.077-0.039 0.154-0.039 0.231s0 0.116 0 0.193c0 0.039 0 0.077 0 0.116v0.077c0.039 0 0 0.039 0 0.077s0 0.039 0 0.077c0 0.077 0 0.116 0 0.193s0 0.154 0 0.231c0 0.039 0 0.039 0 0.077v0.039c0 0.039 0 0.077 0 0.116s0 0.077 0 0.116 0 0.077 0 0.116 0 0.077 0 0.116c0 0.039 0 0.077 0 0.116s0 0.077 0 0.116c0 0 0 0.039 0 0.077 0 0-0.039 0.039 0 0.039-0.039 0 0 0.077 0 0.077 0 0.039 0 0.039 0 0.077v0.039c0 0 0 0 0 0.039v0.039l-0.039 0.039c0 0.039 0 0.077-0.039 0.116-0.039 0-0.039 0.116 0 0.116v0.039c0 0-0.039 0.039 0 0.039 0 0-0.039 0.154 0 0.154v0.039l-0.039 0.039c0 0.039 0 0.039 0.039 0.077 0 0.039-0.039 0.077 0 0.116 0 0 0 0 0 0.039 0 0 0 0 0 0.039 0 0 0 0 0 0.039v0.039c0 0 0 0.039-0.039 0.039v0.039c0 0.039 0 0.039 0 0.077s0 0.039 0 0.077c0 0 0 0.039-0.039 0.039 0 0.039 0 0.039 0 0.039v0.039c0 0.039 0 0.077 0 0.116s0 0.077 0 0.116c0 0.039 0 0 0 0.039 0 0 0 0.039 0 0.077s0 0.077 0 0.116c0 0.039 0 0.077 0 0.116s-0.039 0.039-0.039 0.077c0 0.039 0 0.039 0 0.077v0.039c0 0.039 0.039 0.039 0.039 0.077s0 0.039 0 0.077 0 0.077 0 0.116c0 0.039 0 0.077 0 0.116s0 0.077 0 0.116c0 0.039 0 0.077 0 0.116s0 0.077 0 0.116v0.154c0 0 0 0 0.039 0v0.077c0 0.039 0.039 0.039 0.039 0.039s0 0 0.039 0.039c0 0 0 0 0.039 0.039 0 0 0 0 0.039 0 0 0 0 0 0 0.039 0.039 0 0.039 0.039 0.039 0.039 0.039 0 0.039 0 0.039 0.039 0-0.039 0.077 0 0.077 0 0.039 0 0.077 0 0.116 0 0 0 0 0 0.039 0h0.039c0.039 0 0.077-0.039 0.077-0.039s0.077 0 0.077-0.039h0.039c0-0.039 0.077-0.039 0.116-0.039s0.039-0.039 0.077-0.039l0.039-0.039c0 0 0 0 0.039 0 0 0 0 0 0.039 0h0.039c0 0 0.039 0 0.039-0.039 0 0 0.039 0 0.039-0.039 0 0 0.039 0 0.039-0.039l0.039-0.039h0.039v-0.039c0 0 0-0.039 0.039-0.039 0.039-0.039 0.077-0.077 0.116-0.116 0 0 0-0.039 0.039-0.039l0.039-0.039c0.039-0.039 0.039-0.077 0.039-0.077 0-0.039 0.039-0.039 0.039-0.077s0.039-0.077 0.039-0.077l0.039-0.077v-0.077c0-0.039 0-0.039 0-0.077s0-0.077 0-0.116c0-0.039 0-0.077 0-0.116s0-0.077 0-0.116v-0.077c0-0.039 0-0.077 0-0.116 0.039 0 0.039-0.039 0.039-0.077s0-0.039 0-0.077c0 0-0.039-0.039 0-0.077 0-0.039 0 0 0.039-0.039 0-0.039 0-0.077 0-0.116s0-0.077 0-0.116c0-0.039 0-0.077 0-0.154 0-0.039 0-0.039 0-0.077v-0.039c0 0-0.039-0.039 0-0.039v-0.039c0 0 0-0.039 0-0.077s0-0.039 0-0.077v-0.039c0-0.039 0-0.077 0-0.116s0-0.077 0-0.116c0-0.039 0-0.039 0-0.039s0-0.039 0-0.077c0.039 0 0-0.077 0-0.077 0-0.039 0-0.077 0-0.116s0.039-0.039 0.039-0.077v-0.077c0-0.039 0-0.077 0-0.116s0-0.077 0-0.077 0 0-0.039 0c0 0 0 0 0-0.039 0 0-0.039 0 0-0.039v-0.039c0-0.039 0-0.039 0-0.077-0.039 0 0-0.039 0-0.039s0 0 0-0.039c0 0 0 0 0-0.039 0.039 0 0-0.039 0-0.039s0.039 0 0.039-0.039c0 0 0-0.039 0.039-0.039 0 0 0 0 0.039 0 0 0 0 0 0-0.039v-0.116c0 0 0-0.039 0.039-0.039v-0.039c0-0.039 0.039-0.039 0.039-0.039 0-0.039 0-0.039 0-0.039s0-0.039 0-0.077v-0.039c0-0.039 0.039 0 0.039-0.039 0 0-0.039 0-0.039-0.039v-0.039c0-0.039 0.039-0.039 0.077-0.039 0-0.039-0.039-0.039-0.039-0.077s0-0.039 0-0.077 0-0.039 0.039-0.077c0 0 0-0.039 0.039-0.039v-0.039l0.039-0.039c0.039-0.039 0.039-0.077 0.077-0.077 0.039-0.039 0.039-0.039 0.077-0.077s0.039-0.039 0.077-0.077 0.039-0.077 0.077-0.077l0.039-0.039c0 0 0 0 0-0.039h0.039c0 0 0.039 0 0.039-0.039l0.039-0.039c0 0 0-0.039 0.039-0.039 0 0 0 0 0.039 0 0 0 0 0 0.039-0.039h0.039c0.039 0 0.039-0.039 0.039-0.039l0.039-0.039c0.039 0 0.039-0.039 0.077-0.039 0.039-0.039 0.039-0.039 0.077-0.077l0.039-0.039c0 0 0 0 0.039 0l0.039-0.039c0 0 0.039 0 0.039-0.039 0.039 0 0.077-0.039 0.077-0.039 0.039 0 0.039-0.039 0.039-0.077h0.039c0.039-0.039 0.077-0.116 0.116-0.116 0-0.039 0.039-0.039 0.039-0.077 0 0 0-0.039 0.039-0.039 0 0 0.039 0 0.039-0.039v-0.039c0 0 0-0.039 0.039-0.039 0-0.039 0.039-0.077 0.039-0.116-0.039 0 0-0.077 0-0.116s0-0.039 0-0.077 0-0.039 0-0.077l-0.039-0.039v-0.039c0 0 0-0.039-0.039-0.039 0 0 0-0.039-0.039-0.039 0 0 0 0 0-0.039 0 0 0 0 0-0.039s0-0.039 0-0.039l-0.039-0.039c0 0 0-0.039-0.039-0.039 0 0 0 0 0-0.039 0 0 0 0 0-0.039l-0.039-0.039c-0.039-0.039-0.039-0.039-0.077-0.077l-0.039-0.039h-0.039c-0.039 0-0.077-0.039-0.116-0.039h-0.039c-0.039 0-0.039 0-0.039 0-0.039 0-0.039 0-0.039 0h-0.039c-0.039 0-0.039 0-0.039 0s0 0-0.039 0h-0.039c0 0-0.039-0.039-0.039 0 0 0 0 0 0 0.039h-0.039v-0.039c0 0 0 0-0.039 0 0 0 0 0 0.039 0.039l-0.039 0.039c0 0 0 0-0.039 0h-0.039c0 0-0.039 0-0.039 0.039-0.039 0-0.039 0.039-0.039 0.039-0.039 0-0.039 0-0.077 0 0 0 0 0-0.039 0s-0.077 0-0.077 0.039h0.039c0 0 0 0 0 0.039-0.039 0-0.039 0-0.077 0s-0.077 0.039-0.077 0.039c-0.039 0-0.039 0.039-0.039 0.039-0.039 0-0.077 0.039-0.116 0.039s-0.077 0.039-0.116 0.039h-0.039c-0.039 0-0.039 0-0.039 0-0.039 0-0.077 0-0.077 0.039-0.077 0-0.116 0-0.193 0-0.039 0-0.039 0-0.077 0-0.231 0-0.231 0-0.27 0 0 0.039 0 0 0 0z"></path>
<path d="M12.483 12.453c0.039-0.039 0-0.077 0-0.116v-0.039c-0.039 0-0.039-0.039-0.039-0.039 0-0.039 0-0.039-0.039-0.077v-0.077c0 0 0 0 0-0.039 0 0 0 0 0-0.039 0 0 0 0-0.039-0.039v-0.077c0-0.039 0-0.077-0.039-0.039h-0.039c0 0 0 0-0.039 0h-0.039c-0.039 0-0.077 0-0.077 0h-0.116c0 0 0 0 0 0.039h-0.039c-0.039 0-0.077 0.039-0.077 0.039l-0.039 0.039c-0.039 0-0.039 0-0.039 0-0.039 0-0.039 0.039-0.077 0.039s-0.039 0-0.077 0.039l-0.039 0.039c-0.039 0.039-0.116 0.077-0.154 0.116s-0.039 0.039-0.077 0.077-0.039 0-0.077 0.039c0 0.039-0.039 0.039-0.077 0.077-0.039 0-0.039 0.039-0.077 0.039-0.039 0.039-0.077 0.077-0.077 0.116 0 0 0 0.039-0.039 0.039l-0.039 0.039v0.039c0 0.039 0 0.039 0 0.039s0 0.039-0.039 0.039l-0.039 0.039c0 0 0 0 0 0.039v0.039c0 0.039-0.039 0.039-0.039 0.077v0.039c0 0 0 0 0 0.039s0 0.039 0 0.077 0 0.039 0 0.077c0 0 0 0 0 0.039v0.039c0 0 0 0 0 0.039 0 0 0 0 0.039 0.039v0.039c0 0.039 0.039 0.039 0.039 0.077v0.077h0.039c0 0.039 0 0.039 0.039 0.077l0.039 0.039c0 0 0 0 0.039 0h0.077c0 0 0 0 0 0.039 0 0 0.039-0.039 0.039 0h0.077c0 0 0 0 0.039 0s0.039 0.039 0.077 0.039h0.077c0 0 0 0 0-0.039l0.039-0.039h0.039c0-0.039 0.039 0 0.039-0.039 0 0 0.039 0 0.039-0.039-0.039-0.039 0.077 0 0.077-0.039 0 0 0-0.039 0.039-0.039h0.039c0 0 0-0.039 0.039-0.039 0 0 0.039 0 0.039-0.039h0.039c0 0 0.039 0 0.039-0.039h0.039c0 0 0-0.039 0.039-0.039l0.077-0.039 0.039-0.039v-0.039c0 0 0-0.039 0.039-0.039 0 0 0 0 0.039-0.039 0.039 0 0.039-0.039 0.077-0.039 0 0 0 0 0-0.039v-0.039c0-0.039 0.039-0.039 0.039-0.039 0.039 0 0.039 0 0.039-0.039l0.039-0.039c0 0 0-0.039 0.039-0.039 0 0 0 0 0-0.039v-0.039c0 0 0 0 0.039 0 0 0 0 0 0-0.039s0.039-0.039 0.039-0.077c0-0.039 0-0.039 0-0.077s0 0 0-0.039 0 0 0-0.039c0 0 0 0 0.039 0 0 0-0.039 0-0.039-0.039 0 0 0-0.039 0.039-0.039-0.154 0.039-0.154 0.039-0.116 0-0.039 0-0.039 0 0 0z"></path>
<path d="M23.509 15.769c0 0.039 0 0.039 0.039 0.077s0.039 0.039 0.077 0.077l0.039 0.039c0.039 0 0.077 0 0.116 0.039 0.039 0 0.116 0 0.116 0 0.039 0 0.077 0 0.116 0s0.154-0.039 0.193-0.039c0.039-0.039 0.154-0.077 0.193-0.116s0.077-0.039 0.116-0.077c0 0 0 0 0.039 0 0 0 0 0 0-0.039h0.039l0.077-0.077h0.039c0 0 0 0 0-0.039h0.039c0.039 0 0.039-0.039 0.077-0.077s0.077-0.039 0.077-0.077 0.077-0.077 0.116-0.116c0-0.039 0.039-0.039 0.039-0.077s0-0.039 0-0.077 0.039 0 0.039-0.039 0.039-0.039 0.039-0.077c0-0.039 0-0.077 0-0.077-0.039 0-0.039 0 0 0 0-0.039 0-0.039 0-0.039v-0.039c0 0 0-0.039 0.039-0.039 0 0 0 0 0-0.039v-0.077l-0.039-0.039c0 0 0-0.039 0-0.077s0-0.077 0-0.116 0-0.077 0-0.116v-0.039c0 0 0 0 0-0.039 0 0-0.039 0 0-0.039 0-0.039 0-0.077 0-0.116 0 0 0-0.039 0-0.077 0-0.077 0-0.193 0-0.193 0-0.039 0-0.077 0-0.116v-0.039c0 0 0 0 0-0.039 0 0 0 0 0-0.039v-0.116l0.077 0.039c0 0 0 0 0.039 0v-0.116h-0.039v-0.077h-0.039c0 0 0 0 0-0.039v-0.039c0 0 0 0 0.039 0 0 0 0 0 0 0.039h0.039v-0.039c0 0 0 0 0-0.039 0 0 0 0 0-0.039 0 0 0 0-0.039 0 0 0-0.039 0-0.039-0.039 0 0 0 0 0-0.039v-0.039c0 0 0 0 0-0.039v-0.116c0 0 0 0 0.039 0 0 0 0 0 0-0.039s-0.039-0.077 0-0.077l0.039-0.039c0 0 0 0 0.039 0 0 0 0 0 0-0.039 0 0 0 0 0-0.039 0 0 0 0 0-0.039l0.039-0.039c0 0 0 0 0.039 0 0 0 0 0 0-0.039 0 0-0.039 0-0.039-0.039s0-0.039 0-0.077c0 0 0 0 0-0.039v-0.039c0 0 0 0-0.039-0.039v-0.077h0.039l-0.039-0.039c0 0 0 0 0-0.039v-0.077c0 0 0.039 0 0.039-0.039v-0.039c0 0 0 0.039-0.039 0 0 0 0 0 0-0.039 0 0 0 0 0-0.039v-0.077c0 0 0 0 0.039 0v-0.077c0 0 0 0 0-0.039 0 0 0 0-0.039 0v-0.039c0 0 0.039 0 0.039-0.039 0 0 0 0-0.039-0.039 0 0 0 0 0-0.039v-0.039c0-0.039 0-0.039 0.039-0.039v-0.039c0 0 0 0 0-0.039 0 0 0 0 0-0.039v-0.039c0-0.039 0-0.039 0-0.077v-0.231c0 0 0 0 0-0.039 0 0 0 0 0-0.039v-0.116c0 0 0 0 0-0.039v0-0.039c0 0 0 0 0-0.039 0 0 0.039 0 0 0 0 0 0 0 0-0.039v-0.039c0 0 0 0-0.039 0 0 0 0 0 0.039 0 0 0 0 0 0.039 0v-0.116c0 0 0 0-0.039 0l0.039-0.039c0 0 0 0 0-0.039v-0.039c0 0 0 0-0.039-0.039 0 0 0 0 0.039 0v-0.039c0 0 0 0 0-0.039 0 0 0 0 0-0.039v-0.039c0 0 0 0 0-0.039v-0.077c0 0 0 0 0-0.039v-0.116c0 0 0 0 0-0.039 0 0 0 0-0.039 0 0 0 0 0 0-0.039v-0.039c0 0 0-0.039 0 0v-0.039c0 0 0 0 0-0.039 0 0 0 0 0-0.039 0 0 0 0-0.039 0h-0.039c0 0 0 0-0.039 0h-0.039c0 0-0.039 0-0.077 0 0 0 0 0-0.039 0h-0.116c0 0 0 0.039 0 0 0 0 0 0 0-0.039 0 0 0 0-0.039 0 0 0 0 0-0.039 0h-0.231l-0.039 0.039c0 0-0.039 0.039-0.077 0.039l-0.077 0.077c0 0 0 0-0.039 0 0 0 0 0 0 0.039 0 0-0.039 0-0.039 0.039 0 0 0 0-0.039 0l-0.039 0.077c0 0-0.039 0.039-0.039 0.077 0 0 0 0.039-0.039 0.039l-0.039 0.039v0.039l-0.039 0.077c0 0 0 0 0 0.039l-0.039 0.039v0.116c0 0 0 0 0 0.039l-0.039 0.077v0.116c0 0 0 0 0 0.039v0.116l-0.039 0.039v0.231c0 0 0 0 0 0.039v0.116c0 0 0 0.039 0 0 0 0 0 0 0 0.039v0.424c0 0 0 0 0 0.039v0.039c0 0 0 0 0 0.039 0 0 0 0 0 0.039 0 0 0 0 0 0.039 0 0 0 0-0.039 0 0 0 0 0 0 0.039 0 0 0 0 0 0.039s0 0.039 0 0.077v0.231c0 0 0 0.039 0.039 0.039 0 0 0 0 0 0.039s0 0.039 0 0.039c0 0.039 0 0.039 0 0.039v0.077c0 0 0 0 0 0.039 0 0 0 0-0.039 0 0 0 0 0 0 0.039 0 0 0 0-0.039 0v0.154c0 0 0 0 0 0.039 0 0 0 0 0 0.039s0 0.039 0 0.077c0 0 0 0.077 0 0.116 0 0 0 0 0 0.039v0.27c0 0 0 0.039 0 0.077 0 0 0 0.039 0 0.077v0.154c0 0 0 0 0 0.039v0.193c0 0 0 0 0 0.039v0.039c0 0-0.039 0.039 0 0.039 0 0 0 0 0 0.039v0.039c0 0.039 0 0.039 0 0.077s0 0.193-0.039 0.193c0 0.039-0.039 0.077 0 0.116 0 0.039 0 0.077 0 0.116s0 0.077 0 0.116c0 0.039 0 0.077 0 0.116s0 0.039 0 0.077v0.231c0 0.039 0 0.077 0 0.116s0 0.039 0 0.077 0 0.077 0.039 0.116c-0.463 0.154-0.463 0.231-0.424 0.231z"></path>
<path d="M35.962 12.106c0 0-0.039 0.039-0.039 0s0.039-0.039 0.039-0.039 0 0 0-0.039c0-0.039 0-0.039 0.039-0.039 0 0 0 0 0-0.039 0 0 0 0 0-0.039s0 0 0 0-0.039 0-0.039-0.039l0.039-0.039c0-0.039-0.039 0-0.039-0.039 0 0 0 0 0-0.039v-0.039c-0.039 0 0-0.039-0.039-0.039 0 0-0.039 0-0.039-0.039s-0.039 0-0.039-0.039c0-0.039 0-0.039 0-0.039l-0.039-0.039c0-0.039 0-0.039-0.039-0.039 0 0 0 0-0.039-0.039 0 0 0 0-0.039 0v-0.039c0 0 0-0.039-0.039-0.039l-0.039-0.039c0 0 0 0 0 0.039 0 0-0.039 0-0.077-0.039 0 0 0-0.039-0.039-0.039 0 0.039-0.039 0-0.039 0 0 0.039 0 0.039 0.039 0.039-0.039 0-0.039 0-0.077 0s-0.039 0-0.077 0-0.039 0-0.077 0-0.039 0-0.077 0-0.039 0-0.077 0-0.039 0-0.077 0-0.116 0-0.154 0h-0.077c0 0 0 0-0.039 0 0 0 0 0-0.039 0h-0.039c-0.039 0-0.077 0-0.116 0.039-0.039 0-0.077 0.039-0.116 0.039h-0.039c-0.077 0.039-0.116 0.039-0.193 0.077-0.039 0-0.077 0.039-0.077 0.039s0 0.039-0.039 0.039c0 0 0 0-0.039 0s-0.039 0.039-0.077 0.039c0 0.039-0.039 0.039-0.077 0.039s-0.039 0.039-0.077 0.039c-0.039 0-0.039 0.039-0.077 0.039-0.039 0.039-0.077 0.039-0.116 0.077h-0.039c0 0 0 0-0.039 0.039h-0.039c0 0.039-0.039 0.039-0.039 0.039s0 0-0.039 0c0.116 0.077 0.077 0.077 0.077 0.077s0 0-0.039 0.039h-0.039c0 0-0.039 0-0.077 0.039h-0.039c0 0-0.039 0-0.039 0.039 0 0 0 0-0.039 0s-0.039 0-0.039 0.039c0 0-0.039 0-0.039 0.039-0.039 0-0.077 0.039-0.077 0.039-0.039 0-0.077 0.039-0.077 0.039h-0.039c0 0.039-0.077 0.039-0.077 0.039-0.039 0-0.077 0.039-0.116 0.039-0.077 0.039-0.154 0.039-0.193 0.077-0.039 0-0.039 0-0.077 0s-0.039-0.039-0.077 0-0.039-0.039-0.077-0.039 0-0.077-0.039-0.077c0 0-0.039-0.039-0.077 0 0 0-0.039 0-0.039-0.039 0 0 0 0 0-0.039s-0.039 0-0.039 0c0 0-0.039-0.039 0-0.039v-0.039c-0.039 0 0-0.039-0.039-0.039 0 0.039-0.039 0.039-0.039 0-0.039 0 0 0-0.039-0.039h0.039c0 0-0.039-0.039 0-0.039s0.039-0.039 0.077-0.077v-0.039c0 0 0 0-0.039 0h-0.039v-0.039c-0.039 0 0.039-0.077 0.039-0.077h-0.039c-0.039 0-0.039 0-0.039 0s0 0 0-0.039 0 0 0-0.039v-0.039c0-0.039 0-0.039-0.039-0.039v-0.039c0.039 0 0.039 0 0.039 0v-0.039c0-0.039-0.039 0-0.039 0-0.039 0-0.039-0.039-0.039-0.077h0.039c0.039-0.039-0.039 0-0.039 0-0.039 0 0-0.039 0-0.039h0.039c0 0 0 0 0-0.039 0 0 0 0 0-0.039 0 0 0-0.039-0.039-0.039s0 0.039 0 0.039h-0.039c0 0 0 0 0-0.039v-0.077c0.039 0 0.039 0.039 0.039 0s0-0.077 0-0.077v-0.039c0 0 0-0.039-0.039-0.039 0-0.039 0-0.039 0-0.039v-0.039c0 0 0-0.039 0.039-0.039v0.039c0 0 0 0 0-0.039 0 0 0 0 0-0.039 0 0 0 0 0-0.039 0 0 0 0 0-0.039 0 0 0 0 0-0.039v-0.039c0-0.039 0.039 0 0.039-0.039s0.039-0.039 0-0.039-0.039 0-0.077-0.039c0 0 0 0 0-0.039v-0.077c0 0 0 0 0-0.039 0 0 0.039 0 0.039-0.039s0-0.039-0.039-0.039l-0.039-0.039v-0.077c0 0 0 0 0-0.039h0.039c0.039 0 0-0.039 0-0.039 0-0.039 0-0.039-0.039-0.039s-0.039 0-0.039-0.039 0-0.039 0-0.077 0-0.077 0-0.116c0-0.039 0-0.077 0-0.116s0-0.077 0-0.154c0-0.039 0-0.116 0-0.154 0 0 0.039-0.039 0-0.039 0 0 0 0 0-0.039v-0.077h0.077c0 0-0.039 0-0.039-0.039 0 0 0 0 0-0.039h-0.039c0 0 0-0.039 0-0.077s0-0.039 0.039-0.039 0.039 0 0.039-0.039 0-0.039-0.039-0.039-0.039 0-0.039-0.039 0-0.077 0-0.116h0.039c0 0 0 0 0.039 0 0 0 0 0.039 0.039 0 0 0 0 0 0-0.039-0.039 0-0.039 0-0.039-0.039s0-0.039-0.039-0.077c0-0.039-0.039-0.039 0-0.039 0 0 0 0 0-0.039v-0.039c0 0 0.039 0 0.039-0.039h-0.039c0-0.039 0.039 0 0.039 0v-0.039c0 0-0.039 0-0.039-0.039 0 0 0-0.039 0.039-0.039l0.039 0.039c0.039 0 0-0.039 0-0.039-0.039 0.039 0-0.039-0.039-0.039 0-0.039 0-0.077 0-0.116s0-0.039 0-0.039 0 0 0-0.039-0.039 0.039-0.077 0.039c0 0-0.039 0.039-0.039 0v-0.039c0 0 0 0 0.039-0.039v-0.039c-0.039 0-0.039-0.039-0.039-0.039 0-0.039 0-0.039 0-0.077s0-0.077 0-0.116c0 0 0-0.039 0.039-0.039 0 0 0 0 0.039 0 0 0 0 0 0.039 0h0.039c0 0 0 0 0-0.039 0 0 0 0-0.039 0s0 0-0.039 0v-0.039c0-0.039 0-0.039 0-0.077 0 0 0.039 0 0.039-0.039 0 0 0.039 0 0-0.039h-0.039c-0.039 0 0-0.039-0.039-0.077l-0.039-0.039c0-0.039 0-0.077 0-0.116h0.077c0-0.039-0.039-0.077-0.039-0.077h-0.039v-0.039c0-0.039-0.039-0.077-0.039-0.116 0 0 0.039-0.039 0-0.039 0 0 0 0.039-0.039 0 0-0.039 0-0.039 0-0.077s0-0.039 0-0.039l-0.039-0.039c0 0 0 0 0-0.039v-0.039c0-0.039-0.039 0-0.039 0.039-0.039 0-0.039-0.039-0.077-0.077l-0.077-0.077c-0.077-0.039-0.154-0.039-0.231-0.077-0.039 0-0.077 0-0.116-0.039-0.039 0-0.077 0-0.116 0s-0.077 0-0.116 0c-0.039 0-0.077 0-0.116 0.039h-0.039c0 0 0 0-0.039 0h-0.039c-0.039 0-0.039 0-0.077 0s-0.039 0-0.077 0.039c-0.039 0-0.077 0-0.116 0.039l-0.039 0.039c-0.039 0-0.039 0.039-0.077 0.039s-0.077 0.039-0.116 0.039-0.116 0.077-0.193 0.116c-0.039 0-0.077 0.039-0.077 0.039-0.039 0-0.077 0.039-0.077 0.039s0 0.039-0.039 0.039l-0.039 0.039c-0.039 0.039-0.039 0.039-0.077 0.077 0 0.039-0.039 0.039-0.077 0.077l-0.039 0.039c0 0-0.039 0-0.039 0.039-0.039 0.039-0.116 0.077-0.154 0.154 0 0 0 0.039-0.039 0.039h-0.039c0 0.039-0.039 0.039-0.039 0.077-0.039 0.039-0.039 0.039-0.077 0.077 0 0-0.039 0-0.039 0.039-0.039 0-0.039 0-0.039 0.039s-0.077 0.039-0.077 0.077c-0.039 0-0.077 0.039-0.077 0.039h-0.039l-0.039 0.039c0 0-0.039 0-0.039 0.039-0.039 0-0.039 0-0.077 0s-0.077 0.039-0.116 0h-0.039c-0.039 0-0.039 0-0.039 0-0.039 0-0.039 0-0.077 0s-0.039 0-0.039-0.039 0-0.039-0.039-0.039-0.039 0-0.039 0c-0.039 0-0.077 0-0.116 0 0 0-0.039 0-0.039 0.039l-0.039 0.039c-0.039 0.039-0.077 0-0.116 0s-0.077 0-0.116 0-0.154 0-0.27 0.039c-0.039 0-0.077 0.039-0.116 0.039h-0.077c-0.039 0-0.077 0.039-0.116 0.077-0.039 0-0.077 0.039-0.116 0.039l-0.039 0.039c0 0 0 0-0.039 0h-0.039c0 0 0 0.039-0.039 0.039s-0.077 0.077-0.077 0.116c-0.039 0.039-0.039 0.039-0.077 0.077 0 0.039-0.039 0.039-0.039 0.077-0.039 0.039-0.039 0.039-0.039 0.077s-0.039 0.077-0.039 0.116c0 0.039-0.039 0.077-0.039 0.116-0.039 0.077-0.077 0.154-0.077 0.231 0 0.039 0 0.077 0 0.116s0 0.077 0 0.116 0 0.154-0.039 0.231c0 0.077 0 0.154 0 0.193s0 0.116 0 0.154c0 0.039 0 0.116 0 0.154s0 0.116 0 0.154c0 0 0 0 0 0.039 0 0 0 0 0 0.039v0.077c0 0.039 0 0.116 0 0.154s0 0.116 0 0.154c0 0.039 0 0.116 0 0.154v0.039c0 0.039 0 0.039 0 0.077s0 0.039 0 0.077 0 0.077 0 0.077 0 0.077 0 0.077c-0.039 0 0 0.039 0 0.039-0.039 0.039 0 0.077 0 0.077v0.039c0 0.039-0.039 0.039 0 0.077 0 0 0 0 0 0.039 0 0 0 0 0 0.039s0 0.077 0 0.116c0 0.039 0 0.039 0 0.077s0 0.116 0 0.154c0 0.039 0 0.116 0 0.154v0.039c0 0.039 0 0 0 0.039s0 0.077 0 0.116c0 0.039 0 0.077 0 0.116v0.039c0 0 0 0.039 0 0.077s0 0.077 0 0.077 0 0.077 0 0.077 0 0.077 0 0.077v0.039c0.039 0 0 0.039 0 0.039 0 0.039 0 0.039 0 0.077s0 0.116 0 0.154c0 0.039 0 0.039 0 0.077s0 0.039 0 0.077v0.077c0 0.039 0 0.039 0 0.077s0 0.077 0 0.077v0.039c0 0.039 0 0.039 0 0.039s0 0 0 0.039 0 0.039 0 0.077 0 0.039 0 0.077 0 0.039 0 0.077 0 0.116 0.039 0.154c0 0 0 0.039 0.039 0.039 0 0.039 0 0.039 0.039 0.077s0.039 0.077 0.116 0.116c0.039 0.039 0.077 0.077 0.116 0.077s0.039 0 0.077 0h0.077c0.039 0 0.077 0.039 0.154 0 0.039 0 0.116 0 0.154-0.039 0.039 0 0.116-0.039 0.154-0.077 0.039 0 0.039 0 0.039-0.039 0 0 0.039-0.039 0.077-0.039s0.039-0.039 0.039-0.039h0.039c0 0 0.039 0 0.039-0.039 0.039 0 0.077-0.039 0.077-0.039s0.039 0 0.039-0.039l0.039-0.039c0 0 0 0 0.039 0h0.039c0 0 0 0 0-0.039 0 0 0 0 0.039-0.039l0.039-0.039c0 0.039 0.077 0 0.039 0-0.039-0.039 0.039-0.039 0.077-0.077v-0.077c0 0 0 0 0-0.039 0 0 0 0 0-0.039 0 0 0 0 0-0.039 0 0 0 0 0.039 0s0 0 0-0.039c0 0 0 0 0-0.039v-0.077c0.077 0 0-0.039 0.039-0.039l0.039-0.039c0 0 0.039 0 0.039-0.039s0 0 0-0.039c0-0.039 0.039 0 0.039-0.039s0-0.039 0-0.077-0.039-0.039-0.039-0.039c-0.039-0.039 0-0.039 0-0.077s-0.039-0.039-0.039-0.077c0.039 0 0.039 0.077 0.039 0.077 0.039 0 0-0.039 0-0.039v-0.039c0 0 0 0 0-0.039s0.039-0.039 0.039-0.039v-0.039c0 0 0 0 0-0.039 0 0 0 0 0-0.039s0.039-0.039 0.039-0.077c0 0 0-0.039-0.039-0.039 0 0-0.039 0-0.039-0.039 0 0-0.077 0-0.077-0.039s0.077 0 0.077 0v-0.039c0 0 0 0-0.039 0s-0.039-0.039-0.039-0.039-0.039-0.039 0-0.039 0.039 0 0.039-0.039c0-0.039 0-0.039-0.039-0.039 0-0.039 0.039-0.039 0.039-0.039 0.039 0 0.039-0.039 0.039-0.077 0 0 0 0-0.039 0s-0.039 0.039-0.039 0.039h-0.039l0.039-0.039c0 0-0.039 0-0.039-0.039v-0.039c0-0.039 0-0.039 0-0.077s0-0.077 0-0.116c0-0.039 0-0.077 0-0.116s0-0.077 0-0.077 0 0 0-0.039v-0.039c0-0.039 0-0.039 0.039-0.039h0.039c0-0.039-0.039-0.039 0-0.039 0 0 0 0-0.039-0.039 0 0 0 0-0.039 0 0-0.039 0.039-0.039 0-0.077-0.039 0 0.039-0.039 0.039-0.039 0-0.039 0 0 0-0.039v-0.039c0 0-0.039-0.077 0-0.039v0.077h0.039c0 0 0.039 0 0.039-0.039 0.039 0 0.039-0.039 0-0.039h-0.039v-0.077c0 0-0.039 0-0.039-0.039 0 0 0.039 0 0.039-0.039v-0.039c0 0 0 0-0.039 0s-0.039-0.039-0.077-0.077c0 0-0.039 0-0.039-0.039v-0.077h0.039c0 0 0.039 0 0 0 0-0.039-0.039-0.039-0.039-0.077s0.116 0 0.077-0.039c0 0-0.039 0 0 0h0.039c0.039 0 0.039-0.039 0.039-0.077 0.039-0.039 0-0.039 0-0.077v-0.039l-0.039-0.039v-0.039c0-0.039 0-0.039-0.039-0.039v-0.077c0-0.039 0.039-0.077 0.039-0.077 0.039 0 0.077 0.039 0.077 0l-0.039-0.039c0 0-0.039 0-0.077 0 0.039 0 0.077 0 0.077-0.039s-0.039 0-0.039-0.039c0 0 0.039 0 0.039-0.039 0 0 0.039 0 0.039-0.039s-0.039 0-0.039 0c-0.039 0-0.077 0-0.039-0.039 0 0 0 0 0.039 0 0-0.039-0.039-0.039 0-0.039 0-0.039 0.077 0 0.039 0.039h0.039c0.039 0 0 0 0.039-0.039l0.039-0.039c0-0.039-0.039 0-0.077-0.039 0-0.039 0-0.039 0.039-0.077 0 0 0.039 0 0.039-0.039s0-0.039 0-0.039v-0.039c0-0.039 0-0.039 0-0.077v-0.039c0-0.039-0.039 0 0-0.039 0 0 0 0 0-0.039h0.039c0 0 0 0 0-0.039v-0.077c0-0.039 0.039-0.077 0-0.116 0-0.039 0-0.039 0-0.039s0.039 0 0.039-0.039c0.039 0 0.039-0.039 0.077-0.039 0.039-0.039 0.039-0.077 0.039-0.116l-0.039-0.039h0.039c0 0 0 0 0 0.039s0.039 0 0.039 0c0-0.039 0.039-0.039 0.039-0.039 0.039-0.039 0.077-0.077 0.077-0.077l0.039-0.039c0 0 0.039 0 0.039-0.039 0.039-0.039 0.039-0.077 0.039-0.116 0.039 0 0.039-0.039 0.077-0.039s0 0 0-0.039c0-0.039 0-0.039 0-0.039s0-0.039 0.039-0.039c0 0 0.039 0 0.039-0.039 0.039 0 0.039 0 0.039 0 0.039 0 0.039-0.077 0.077-0.077l0.039-0.039c0.039 0 0.039 0 0.077 0l0.039-0.039c0.039 0 0.039 0 0.077-0.039s0.039-0.039 0.077-0.039 0.077 0 0.077 0 0.039-0.039 0.039-0.039h0.039c0 0 0 0 0.039 0s0.077 0 0.116 0 0.154 0.077 0.193 0.116l0.039 0.039v0.039h0.039c0 0 0 0 0 0.039s0 0.039 0 0.039c0 0.077 0 0.154 0 0.27 0 0.077 0 0.193 0 0.27 0 0.039 0 0.077 0 0.116s0 0.039 0 0.039c0 0.039 0 0.077 0 0.116s0 0.077 0 0.116 0 0.154 0 0.27v0.039c0 0.039 0 0.077 0 0.116v0.039c0 0 0 0-0.039 0 0 0 0 0 0 0.039s0 0.039 0 0.077c0 0 0 0 0.039 0v0.039c0 0.039 0 0.039-0.039 0.039 0 0-0.039 0.039 0 0.077v0.039c0 0.039 0 0.039 0 0.077v0.039c0 0.039 0 0.077-0.039 0.116v0.077c0 0.039 0 0.116-0.039 0.154 0 0.039 0 0.039 0.039 0.077 0 0.039 0.039 0.077 0.039 0.116s0 0.077-0.039 0.116c0 0.039 0 0.077 0 0.116s0 0.077 0 0.116c0 0.039 0 0.039 0 0.077 0 0 0 0 0 0.039 0 0 0 0 0 0.039s0 0.039 0 0.077-0.039 0.039 0 0.077 0.039 0.039 0.039 0.039c0 0.039 0 0.039 0 0.077s0 0.039 0 0.077 0 0.039 0 0.039c0 0.039 0 0.077 0 0.116 0 0.077 0 0.154 0 0.231 0 0.039 0 0.077 0 0.116s0 0.077 0.039 0.116c0 0 0 0.039 0 0.077s0 0.039 0.039 0.039l0.039 0.039v0.039c0 0 0 0.039 0.039 0.039l0.039 0.039c0 0.039 0.039 0.039 0.077 0.077l0.077 0.077c0.039 0.039 0.077 0.039 0.116 0.039s0.039 0 0.039 0.039 0 0.039-0.039 0.039c0 0-0.039 0-0.039 0.039-0.039 0-0.039 0.039-0.077 0.039h-0.039c-0.039 0.039-0.077 0.039-0.116 0.077-0.039 0-0.039 0.039-0.077 0.039s-0.039 0.039-0.077 0.039c0 0-0.039 0-0.039 0.039l-0.039 0.039c0 0-0.039 0-0.039 0.039l-0.039 0.039c-0.039 0.039-0.077 0.039-0.116 0.077-0.077 0.039-0.116 0.077-0.193 0.077-0.154 0.077-0.27 0.193-0.424 0.231-0.039 0-0.077 0.039-0.116 0.039s-0.039 0.039-0.039 0.039-0.039 0-0.039 0.039c-0.077 0.039-0.116 0.077-0.193 0.116-0.039 0-0.077 0.039-0.077 0.039h-0.039c-0.039 0-0.039 0-0.039 0.039-0.039 0.039-0.077 0.039-0.116 0.077 0 0 0 0-0.039 0s-0.039 0.039-0.077 0.039l-0.039 0.039c0 0-0.039 0-0.039 0.039-0.077 0.039-0.116 0.077-0.193 0.116s-0.154 0.077-0.193 0.116l-0.039 0.039c0 0 0 0-0.039 0 0 0-0.039 0-0.039 0.039 0 0-0.039 0-0.039 0.039-0.077 0.039-0.154 0.077-0.193 0.116-0.077 0.039-0.154 0.077-0.193 0.116s-0.077 0.039-0.116 0.077c-0.039 0-0.077 0.039-0.077 0.039-0.077 0.039-0.116 0.077-0.193 0.077-0.039 0-0.077 0.039-0.116 0.039s-0.039 0.039-0.077 0.077l-0.039 0.039h-0.039c-0.039 0.039-0.077 0.039-0.077 0.077-0.077 0.039-0.116 0.077-0.193 0.116-0.039 0-0.039 0.039-0.077 0.039 0 0-0.039 0-0.077 0.039 0 0-0.039 0-0.039 0.039 0 0-0.039 0-0.039 0.039-0.039 0-0.039 0-0.039 0.039 0 0-0.039 0-0.039 0.039l-0.039 0.039c-0.039 0-0.039 0-0.039 0s0 0.039-0.039 0.039c0 0 0 0-0.039 0 0 0 0 0-0.039 0 0 0 0 0-0.039 0 0 0 0 0 0 0.039 0 0 0 0-0.039 0s-0.077 0.039-0.077 0.039-0.039 0-0.039 0.039-0.039 0-0.039 0.039l-0.039 0.039-0.039-0.039c0 0-0.039 0-0.077 0.039 0 0 0 0 0 0.039h-0.039c-0.039 0.039-0.039 0.077-0.077 0.077s-0.039 0-0.039 0 0 0.039-0.039 0.039-0.039 0.039-0.077 0.039-0.077 0.039-0.116 0.039c-0.039 0-0.077 0.039-0.116 0.039s-0.077 0.039-0.116 0.039c-0.039 0.039-0.077 0.039-0.077 0.039l-0.039 0.039c0 0 0 0-0.039 0.039s-0.039 0.039-0.077 0.039c-0.039 0.039-0.077 0.039-0.077 0.077-0.039 0-0.039 0.039-0.077 0.039s-0.039 0-0.077 0.039-0.077 0.039-0.077 0.077-0.077 0.039-0.077 0.039-0.077 0.039-0.077 0.077c0 0-0.039 0.039-0.077 0.039s-0.039 0-0.039 0l-0.039 0.039-0.077 0.039c-0.077 0.039-0.154 0.116-0.27 0.154-0.077 0.039-0.154 0.116-0.231 0.154-0.154 0.116-0.308 0.193-0.463 0.27-0.077 0.077-0.193 0.116-0.27 0.193l-0.039 0.039h-0.039c-0.039 0-0.039 0-0.039 0.039 0 0-0.039 0.039-0.077 0.039s-0.077 0.039-0.077 0.039-0.077 0.039-0.116 0.039l-0.039 0.039c0 0-0.039 0-0.039 0.039-0.039 0.039-0.077 0.039-0.077 0.039s-0.039 0-0.039 0.039c-0.039 0 0 0-0.039 0.039 0 0-0.039 0-0.039 0.039 0 0-0.039 0-0.039 0.039 0 0 0 0 0 0.039h-0.039c0 0 0 0.039-0.039 0.039 0 0 0 0-0.039 0 0 0 0 0 0 0.039l-0.039 0.039c0 0-0.077 0.039-0.116 0.039 0-0.039 0-0.077 0-0.077s0.039 0 0-0.039 0-0.039 0-0.039v-0.039c0-0.039 0 0 0-0.039s0.039-0.077 0-0.116c0-0.039-0.039-0.077 0-0.116 0-0.039 0-0.077 0-0.116s0-0.077 0-0.116c0-0.039 0-0.077 0-0.116v-0.039c0 0 0 0 0-0.039 0 0 0 0 0-0.039s0 0 0.039-0.039v-0.039c0 0 0 0 0-0.039 0 0 0 0 0-0.039s-0.039-0.039-0.039-0.077c0-0.039 0.039-0.039 0.039-0.077-0.039 0 0-0.039 0-0.039-0.039 0-0.039-0.077 0-0.116h0.039l-0.039-0.039c0-0.039 0-0.039 0-0.039 0-0.039 0.039-0.039 0.039-0.077s0-0.039 0-0.039c0-0.039 0-0.039 0-0.039v-0.077c0-0.039-0.039 0-0.039-0.039s0-0.039 0-0.077 0-0.039 0-0.077v-0.039c0 0 0.039 0 0-0.039 0 0 0 0-0.039 0v-0.039c0-0.039 0-0.039 0-0.077s0-0.116 0-0.154c0 0 0-0.039 0-0.077 0 0 0-0.039 0.039-0.039 0 0 0.039 0 0.039-0.039h-0.039v-0.039c0-0.039 0-0.077 0-0.116s0-0.077 0-0.116c0-0.039 0.039-0.077 0.039-0.116-0.039 0 0-0.039 0-0.039 0-0.039 0-0.039 0-0.077s0-0.116 0-0.154c0-0.039 0-0.116 0-0.154s0-0.039 0-0.077v-0.077c-0.039 0 0-0.039 0-0.077s0-0.077 0-0.116c0-0.039 0-0.077 0-0.116s0-0.077 0-0.077c0-0.116 0.039-0.231 0.039-0.347s0-0.231 0-0.308c0-0.039 0-0.039 0-0.077s0-0.039 0-0.077 0-0.116 0-0.154c0-0.039 0-0.039 0-0.077 0 0 0 0 0-0.039 0 0-0.039 0-0.039-0.039s0.039-0.039 0.039-0.039c0-0.039 0-0.039 0-0.077s0-0.039 0-0.077 0-0.039 0-0.077 0-0.077 0-0.154c0 0 0.116-0.039 0.039-0.077 0 0.039 0 0.039-0.039 0 0 0 0-0.039 0-0.077 0 0 0-0.039 0-0.077 0 0 0 0 0.039 0 0.039-0.039 0-0.039-0.039-0.077v-0.039c0.039 0 0 0 0.039 0v-0.039c0 0-0.039 0 0-0.039 0 0 0 0 0.039 0 0 0 0 0 0-0.039s0-0.039 0-0.039v-0.039c0-0.039 0-0.039 0-0.039 0-0.039 0-0.039 0-0.039s-0.039-0.039 0-0.039c0.039-0.039 0.077-0.039 0.039-0.077l-0.039-0.039c0-0.039 0-0.039 0.039-0.039v-0.039c0 0 0-0.039 0-0.077s0-0.116 0-0.116c0.039 0 0.039 0 0.039-0.039v-0.039c0-0.039 0-0.039 0-0.039s0-0.039 0-0.077h0.039c0 0 0.039-0.039 0-0.039l-0.039-0.039v-0.116c0 0 0 0 0.039-0.039-0.039 0 0-0.039 0-0.039 0-0.039 0-0.039 0-0.039 0-0.039 0-0.039 0-0.039 0-0.039 0-0.039 0-0.077v-0.039c0 0 0.039-0.039 0-0.039 0 0-0.039 0-0.039-0.039s0.039 0 0.039 0h-0.039c-0.039 0 0 0 0-0.039s0-0.077-0.039-0.077c-0.039 0-0.039 0-0.039-0.039l-0.039-0.039c0-0.039-0.039-0.039-0.077-0.077-0.039-0.077-0.116-0.077-0.193-0.116-0.039 0-0.077-0.039-0.116-0.039s-0.077 0-0.154 0-0.193 0-0.27 0.039c-0.039 0-0.039 0.039-0.077 0.039 0 0-0.039 0-0.039 0.039h-0.039c0 0 0 0 0 0.039 0 0-0.039 0.039-0.077 0 0 0 0 0-0.039 0s-0.039 0.039-0.077 0.039c-0.039 0-0.039 0.039-0.077 0.039s-0.039 0.039-0.077 0.077c0 0.039-0.039 0.039-0.077 0.077l-0.039 0.039v0.039c-0.039 0.039-0.039 0.077-0.039 0.116v0.077c0 0.039 0 0.077 0 0.116s-0.039 0.077-0.039 0.116c0 0.039 0 0.039 0 0.077v0.039c0 0.039 0 0.077 0 0.116s0 0.116 0 0.154c0 0.039 0 0.039 0 0.077s0 0.039 0 0.077 0 0.077 0 0.116c0 0 0 0 0 0.039 0 0 0 0 0 0.039s0 0.039 0 0.039c0 0.039 0 0.077 0 0.116v0.077c0 0 0 0 0 0.039 0 0 0 0 0 0.039 0 0 0 0.039 0 0.077s0 0.077 0 0.116c0 0.039 0 0.077 0 0.116s0 0.077 0 0.116c0 0.039 0 0.039 0 0.077v0.039c0 0.039 0 0.077 0 0.154 0 0.039 0 0.039 0 0.039s0 0.039 0 0.077c0 0.039 0 0.039 0 0.077s0 0.039 0 0.077 0 0.077 0 0.116c0 0.039 0 0.077 0 0.116s0 0.039 0 0.077 0 0.077 0 0.077-0.039-0.039-0.039 0.039v0.039c0 0.039 0 0 0.039 0 0 0.039 0 0.077 0 0.116 0 0 0 0 0 0.039 0 0-0 0-0.039 0v0.039c0 0.039 0 0.116 0 0.154s0 0.077 0 0.116c0 0.039 0 0.077 0 0.116s0 0.039 0 0.077c0 0 0 0 0 0.039s0 0.077 0 0.116c0 0.039 0 0.077-0.039 0.116 0 0.039 0 0.077 0 0.077 0 0.039 0 0.077 0 0.116 0 0 0 0.077 0 0.116s0 0.077 0 0.116-0.039 0.116 0 0.193c0 0 0 0.039 0 0.077 0 0 0 0.039-0.039 0.039 0 0.039 0 0.077 0 0.116s0 0.077-0.039 0.116c0 0.077 0 0.154-0.039 0.231v0.039c0 0.039 0 0.039 0 0.039 0 0.039 0 0.077-0.039 0.116-0.039 0.154-0.077 0.27-0.154 0.386 0 0.039-0.039 0.039-0.077 0.077s-0.077 0.077-0.116 0.116c0 0.039-0.039 0.039-0.039 0.039s0 0.039-0.039 0.039c0 0 0 0-0.039 0l-0.077 0.077h-0.039c0 0-0.039 0-0.039 0.039-0.039 0-0.039 0-0.077 0l-0.039 0.039c-0.039 0.039-0.116 0.039-0.193 0.039-0.039 0-0.077 0-0.116 0h-0.039c0 0-0.039 0-0.039-0.039-0.039 0-0.039 0-0.077-0.039-0.039 0-0.039-0.039-0.039-0.039-0.039-0.039-0.077-0.039-0.077-0.077-0.039-0.039-0.039-0.077-0.039-0.116s0-0.039 0-0.077l-0.039-0.039c-0.039-0.077-0.039-0.154-0.039-0.231s-0.039-0.154 0-0.231v-0.039c0-0.039-0.039-0.039-0.039-0.039v-0.039c0-0.039 0-0.077-0.039-0.077 0 0 0-0.039 0-0.077 0 0 0-0.039 0-0.077l0.039-0.039c0-0.039 0.039-0.077 0.039-0.116s0-0.077 0-0.116 0-0.154 0.039-0.231c0-0.039 0-0.077 0-0.116s0-0.039 0-0.077 0-0.039 0-0.039c0-0.039 0-0.039 0-0.077 0 0 0 0 0.039-0.039v-0.039c0.039 0 0.039-0.077 0.039-0.116s0-0.077-0.039-0.116c-0.039 0-0.039-0.039-0.039-0.039s0 0 0-0.039c0 0 0 0 0-0.039s0-0.039 0-0.077 0-0.039 0-0.077c0.039 0 0-0.154 0-0.154v-0.039c0-0.039 0.039-0.039 0.039-0.077 0 0 0-0.039 0-0.077s0-0.039 0-0.039c0-0.039 0-0.039 0-0.039s0-0.039 0.039-0.039c0-0.039 0.039-0.077 0.039-0.116s0-0.077 0.039-0.116c0-0.039 0.039-0.077 0.039-0.116 0.039-0.039 0.077-0.077 0.077-0.116s0.039-0.077 0.039-0.154c0-0.039 0-0.116 0.039-0.116 0 0 0-0.077 0.039-0.039v-0.039c0.039 0 0.039-0.039 0.039-0.077s0.039-0.077 0.039-0.039c0 0 0.039-0.039 0.039-0.077s0-0.039 0-0.077c-0.039 0 0-0.039 0.039-0.039s0.039-0.039 0.039-0.039c0.039-0.039 0.077-0.039 0.077-0.077 0 0 0 0 0.039 0 0-0.039 0-0.077 0.039-0.116 0-0.039 0.077-0.116 0.077-0.077 0 0 0.039 0 0.039-0.039 0 0 0-0.039 0.039-0.039 0-0.039 0.039 0 0.039-0.039 0 0 0.039-0.039 0.039-0.077v-0.077h0.039v-0.077l0.039-0.039 0.039-0.039v-0.077c0 0 0-0.039 0.039-0.039v-0.039c0-0.039 0.039-0.077 0.039-0.116s0-0.039-0.039-0.039c0 0 0 0 0-0.039s0-0.077 0.039-0.077c0-0.039 0-0.077 0-0.116v-0.039c0-0.039 0-0.039 0-0.039v-0.039c0 0 0-0.039-0.039-0.039l-0.039-0.039c0 0 0-0.039-0.039-0.039h-0.231c-0.039 0-0.039 0-0.039 0-0.039 0-0.039 0-0.077 0h-0.039c-0.039 0 0 0-0.039 0s-0.077 0.039-0.116 0.039c-0.039 0-0.077 0-0.077 0.039h-0.039c-0.039 0-0.039 0-0.039 0.039h-0.039c0 0-0.039 0-0.039 0.039-0.039 0-0.077 0-0.077 0.039l-0.116 0.116c0 0 0 0-0.039 0 0 0 0 0-0.039 0 0 0-0.039 0.039-0.039 0-0.039 0 0 0-0.039 0h-0.039l-0.039 0.039c-0.077 0.039-0.116 0.077-0.154 0.116s-0.116 0.077-0.154 0.116c-0.039 0.039-0.039 0.039-0.077 0.077l-0.039 0.039c0 0 0 0.039-0.039 0.039 0 0 0 0-0.039 0 0 0 0 0 0 0.039 0 0 0 0.039-0.039 0.039 0 0.039-0.039 0.039-0.039 0.077v0.039c0 0 0 0-0.039 0 0 0 0 0.039-0.039 0.077s-0.039 0.077-0.077 0.116l-0.039 0.077c0 0 0 0.039-0.039 0.039 0 0 0 0 0 0.039 0 0 0 0-0.039 0.039l-0.039 0.039c0 0.039-0.039 0.039-0.039 0.077s0 0.039-0.039 0.077v0.039l-0.077 0.077c0 0 0 0 0 0.039 0 0 0 0.039-0.039 0.039 0 0 0 0.039-0.039 0.039 0 0 0 0.039-0.039 0.039v0.039c0 0 0 0.039-0.039 0.039 0 0.039-0.039 0.077-0.039 0.116v0.039c0 0 0 0.039-0.039 0.039v0.039l-0.039 0.039v0.039c0 0.039 0 0.039-0.039 0.077 0 0.039 0 0.039-0.039 0.077 0 0.039-0.039 0.077-0.039 0.077 0 0.039-0 0.077-0.039 0.116 0 0.039 0 0.077-0.039 0.116 0 0.039 0 0.077-0.039 0.116 0 0.077-0.039 0.116-0.039 0.193 0 0.039 0 0.077-0.039 0.077v0.039c0 0 0.039 0.039 0 0.039 0 0.039 0 0.077-0.039 0.116 0 0 0 0.039 0 0.077s0 0.039 0 0.077-0.039 0.039-0.039 0.077v0.077c0 0 0 0 0 0.039v0.039c0 0 0 0 0 0.039s0 0.077 0 0.116 0 0.154 0 0.231 0 0.154 0 0.231c0 0.039 0 0.039 0 0.077s0 0.039-0.039 0.077c0 0.039 0 0.039-0.039 0.077 0 0.039 0 0.039 0 0.077s0 0.039 0 0.077 0 0.039 0 0.077c0.039 0 0 0.116 0 0.154s0.039 0.039 0.039 0.039c0 0.039 0 0.039 0 0.077 0 0.116 0 0.193 0 0.308 0 0.077 0 0.154 0 0.231 0 0.039 0 0.039 0 0.077s0 0.116 0 0.154c0 0.077 0 0.193 0 0.27 0 0.039 0 0.077 0 0.116 0.039 0.039 0 0.039 0 0.077s0 0.077 0 0.077 0 0.039 0 0.077c0.039 0.077 0.039 0.116 0.039 0.193v0.039c0 0 0 0.039 0.039 0.039 0 0.039 0 0.077 0.039 0.077 0 0.039 0.039 0.077 0.039 0.077s0 0.039 0.039 0.077c0 0.039 0.039 0.039 0.039 0.039 0 0.039 0 0.039 0 0.077l0.039 0.039c0.039 0.039 0.077 0.077 0.116 0.116s0.077 0.039 0.077 0.077v0.039c0.039 0.039 0.116 0.077 0.154 0.116 0.039 0 0.077 0.039 0.116 0.039 0 0 0.039 0 0.039 0.039 0 0 0 0.039 0.039 0.039 0 0 0 0 0-0.039 0.039 0 0.039 0 0.077 0s0.039 0 0.039 0c0.039 0 0.039 0 0.077 0s0.039 0.039 0.077 0.039c0.039 0 0.039 0 0.077 0 0 0 0.039 0 0.077 0s0.039 0 0.039 0c0.039 0 0.039 0 0.077 0 0 0 0 0 0.039 0 0.039-0.039 0.077 0 0.116 0h0.077c0.039 0 0.039 0 0.077 0s0.116 0 0.154 0c0.039 0 0.077-0.039 0.154-0.039h0.039v-0.039c0.039 0 0.039 0 0.039 0h0.116c0 0 0.077 0.039 0.077 0 0 0-0.077 0-0.077-0.039s0.039 0 0.077-0.039c0.039 0 0.039-0.039 0.077-0.039 0 0 0.039 0.039 0.077 0 0 0 0 0 0-0.039h0.039c0 0 0-0.039 0.039-0.039s0.077 0 0.116 0c0.039 0 0.039 0 0.077-0.039 0.039 0 0.077 0 0.077-0.039h0.039c0 0 0 0 0-0.039 0.039-0.039 0.039 0 0.077 0 0 0 0 0 0-0.039h0.039l0.039-0.039c0.039 0 0.077 0 0.077 0s0-0.039 0.039-0.039c0 0 0.039 0 0.077-0.039l0.039-0.039c0.039 0 0.039 0 0.077-0.039l0.039-0.039h0.077c0.039 0 0.039 0.077 0.039 0.116s0 0.077 0 0.154v0.039c0 0 0 0 0 0.039s0 0.039 0 0.077c0 0 0 0 0 0.039v0.039c0 0.039 0 0.039 0 0.077 0 0 0 0.039 0.039 0.039 0 0.039 0 0-0.039 0.039v0.039c0 0 0 0 0 0.039v0.077c0 0.039 0 0 0 0.039 0 0 0 0 0 0.039s0 0.039 0 0.039v0.039c0 0 0.039 0.039 0 0.039 0 0 0 0 0 0.039-0.039 0-0.039 0-0.077 0.039l-0.039 0.039-0.039 0.039c0 0-0.039 0-0.039 0.039-0.039 0.039-0.039 0.039-0.077 0.077s-0.077 0.039-0.116 0.077c-0.039 0-0.039 0.039-0.077 0.077s-0.077 0.039-0.077 0.077c0 0 0 0-0.039 0-0.116 0.039-0.193 0.116-0.27 0.154-0.039 0.039-0.077 0.039-0.116 0.077l-0.077 0.077c0 0 0 0 0 0.039h-0.039l-0.039 0.039c-0.077 0.039-0.116 0.116-0.193 0.154s-0.116 0.116-0.231 0.193c-0.077 0.039-0.154 0.154-0.27 0.193 0 0.039 0 0.039-0.039 0.039l-0.039 0.039c-0.039 0.039-0.077 0.039-0.077 0.039s-0.039 0-0.039 0.039c0 0 0 0.039-0.039 0.039s-0.039 0-0.039 0.039l-0.077 0.077h-0.039c0 0.039-0.039 0.039-0.039 0.039-0.039 0-0.039 0.039-0.077 0.039s-0.039 0.039-0.077 0.039c-0.039 0-0.039 0.039-0.077 0.039 0 0.039-0.039 0.039-0.039 0.039l-0.039 0.039c0 0-0.039 0-0.039 0.039l-0.077 0.077c-0.039 0-0.039 0-0.077 0.039s-0.077 0.039-0.077 0.077-0.077 0.077-0.116 0.116c-0.039 0.039-0.077 0.077-0.116 0.077h-0.039c0 0-0 0.039-0.039 0.039 0 0-0.039 0-0.039 0.039 0 0 0 0.039-0.039 0.039s-0.039 0.039-0.077 0.039c-0.039 0-0.039 0.039-0.077 0.039 0 0.039-0.039 0-0.039 0.039 0 0 0 0.039-0.039 0.039 0 0-0.039 0-0.039 0.039 0 0 0 0 0 0.039 0 0 0 0-0.039 0s-0.039 0.039-0.077 0.077l-0.039 0.039c0 0-0.039 0-0.039 0.039-0.039 0-0.077 0.039-0.116 0.039 0 0 0 0-0.039 0.039 0 0-0.039 0-0.039 0.039 0 0 0 0.039-0.039 0.039 0 0 0 0.039-0.039 0.039 0 0-0.039 0-0.039 0.039-0.039 0-0.039 0.039-0.077 0.077-0.039 0-0.039 0.039-0.077 0.077 0 0-0.039 0-0.077 0.039l-0.039 0.039c-0.039 0-0.077 0.039-0.116 0.077l-0.039 0.039c-0.039 0-0.039 0.039-0.039 0.039l-0.077 0.077c0 0-0.039 0-0.077 0.039-0.039 0-0.039 0.039-0.039 0.039-0.039 0.039-0.077 0.039-0.116 0.077s-0.039 0.039-0.077 0.077-0.077 0.039-0.116 0.077c-0.039 0.039-0.077 0.039-0.077 0.077-0.039 0.039-0.039 0.077-0.077 0.077-0.039 0.039-0.039 0.039-0.116 0.077s-0.154 0.116-0.193 0.154c-0.077 0.039-0.116 0.116-0.193 0.154-0.039 0.039-0.077 0.039-0.116 0.077l-0.039 0.039c-0.039 0-0.039 0-0.039 0.039-0.039 0.039-0.116 0.116-0.154 0.154s-0.116 0.077-0.154 0.116c-0.039 0.039-0.077 0.077-0.116 0.077 0.039 0.039-0.116 0.039-0.077 0.116-0.039 0 0-0.039-0.039 0 0 0.039-0.077 0.116-0.116 0.116-0.424 0.193-0.463 0.193-0.463 0.231-0.039 0.039-0.039 0.039-0.116 0.039l-0.039 0.039-0.039 0.039c-0.039 0.039-0.039 0.077-0.077 0.077-0.077 0.039-0.154 0.116-0.193 0.193-0.039 0-0.039 0.039-0.077 0.039 0 0-0.039 0.039-0.039 0.077-0.039 0-0.039 0-0.039 0.039 0 0-0.039 0-0.039 0.039-0.039 0.039-0.077 0.039-0.077 0.077-0.077 0.039-0.116 0.116-0.193 0.154s-0.154 0.154-0.231 0.193c0 0-0.039 0-0.039 0.039 0 0 0 0.039-0.039 0.039s-0.039 0-0.039 0.039l-0.039 0.039c-0.039 0.039-0.077 0.039-0.116 0.077 0 0-0.039 0-0.039 0.039-0.039 0-0.077 0.039-0.116 0.077l-0.077 0.077c-0.039 0-0.077 0.077-0.116 0.077 0 0-0.039 0.039-0.077 0.039l-0.039 0.039c-0.039 0.039-0.077 0.039-0.116 0.077s-0.077 0.077-0.116 0.077-0.116 0.116-0.193 0.154c-0.039 0.039-0.039 0.039-0.077 0.077s-0.039 0.039-0.077 0.077c0 0-0.039 0.039-0.077 0.077v0.039h-0.039c-0.039 0-0.077 0.039-0.116 0.077 0 0.039-0.039 0.039-0.039 0.039l-0.077 0.077c0 0-0.039 0-0.039 0.039 0 0 0 0.039-0.039 0.039 0 0 0 0-0.039 0 0 0 0 0-0.039 0.039-0.077 0.116-0.116 0.154-0.116 0.193-0.077 0.077-0.116 0.116-0.193 0.193-0.039 0.039-0.077 0.039-0.077 0.077-0.039 0.039-0.077 0.077-0.116 0.116-0.077 0.039-0.116 0.116-0.193 0.154-0.077 0.077-0.154 0.116-0.193 0.193l-0.077 0.077c-0.039 0.039-0.077 0.039-0.077 0.077-0.039 0.039-0.039 0.039-0.077 0.077s-0.077 0.039-0.077 0.077-0.116 0.116-0.193 0.154c-0.077 0.039-0.116 0.116-0.154 0.154-0.077 0.077-0.154 0.154-0.193 0.193s-0.077 0.077-0.116 0.116c-0.039 0.039-0.077 0.077-0.077 0.116-0.039 0.077-0.116 0.154-0.154 0.193s-0.077 0.116-0.116 0.154c-0.039 0.039-0.039 0.077-0.077 0.116s-0.039 0.077-0.077 0.116c-0.039 0.039-0.039 0.077-0.039 0.116 0.039 0 0 0.039 0 0.039 0 0.039-0.039 0.116-0.039 0.116 0 0.077 0.039 0.077 0.039 0.154 0 0.039 0 0.039 0 0.077s0 0.039 0.039 0.077c0 0.039 0 0.077 0.039 0.077 0 0 0 0.039 0.039 0.039 0 0.039 0.039 0.077 0.039 0.116l0.039 0.039c0 0.039 0 0.039 0.039 0.077 0 0.039 0.039 0.039 0.077 0.039 0.039 0.039 0.039 0.077 0.077 0.077 0.077 0.039 0.116 0.077 0.193 0.116h0.039c0 0 0.039 0 0.039 0.039 0 0 0.039 0 0.077 0 0 0 0.039 0 0.039 0.039 0.039 0 0.077 0 0.116 0 0 0 0 0 0.039 0 0 0 0 0 0.039 0s0.039 0 0.077 0h0.116c0.039 0 0.039 0 0.039 0 0.039 0 0.077 0 0.116 0s0.039 0 0.039-0.039h0.039c0.039 0 0.039 0 0.039-0.039 0 0 0.039 0 0.039-0.039 0 0 0-0.039 0.039-0.039 0-0.039 0.039-0.039 0.039-0.039 0.039 0 0.039-0.039 0.039-0.039s0.039 0 0.039-0.039c0 0 0-0.039 0.039-0.039 0.039-0.039 0.039-0.039 0.077-0.077 0 0 0-0.039 0.039-0.039 0-0.039 0.039 0 0.039-0.039 0 0 0-0.039 0.039-0.039l0.039-0.039c0.039-0.039 0.039-0.039 0.077-0.077s0.077-0.077 0.116-0.116c0 0 0 0 0-0.039s0.039-0.039 0.077-0.077c0.039-0.039 0.039-0.039 0.077-0.077 0.039 0 0.039-0.039 0.077-0.077s0.039-0.039 0.077-0.077c0 0 0.039 0 0.039-0.039l0.039-0.039c0 0 0-0.039 0.039-0.039l0.039-0.039c0 0 0.039 0 0.039-0.039 0 0 0-0.039 0.039-0.039h0.039c0 0 0-0.039 0.039-0.039l0.039-0.039v-0.039c0 0 0.039 0 0.039-0.039l0.039-0.039c0.039-0.039 0.039-0.039 0.077-0.077 0-0.039 0.039-0.039 0.039-0.077s0-0.039 0.039-0.077c0 0 0.039 0 0.039-0.039h0.039c0 0 0-0.039 0.039-0.039 0 0 0.039 0 0.039-0.039 0 0 0-0.039 0.039-0.039 0.039-0.039 0.039-0.039 0.077-0.077 0-0.039 0.039-0.039 0.077-0.039 0 0 0.039-0.039 0.077-0.077l0.039-0.039c0 0 0-0.039 0.039-0.039 0.039-0.039 0.039-0.039 0.077-0.039 0.039-0.039 0.039-0.039 0.077-0.077 0-0.039 0.039-0.039 0.039-0.039s0-0.039 0.039-0.039c0 0 0.039 0 0.039-0.039 0.039 0 0.039-0.039 0.039-0.077 0 0 0-0.039 0.039-0.039 0 0 0.039 0 0.039-0.039 0.039-0.039 0.039-0.039 0.077-0.077s0.039-0.039 0.077-0.077c0 0 0.039 0 0.039-0.039 0 0 0-0.039 0.039-0.039 0.039-0.039 0.039-0.039 0.077-0.077s0.077-0.039 0.077-0.077c0.077-0.039 0.077-0.116 0.116-0.154s0.077-0.116 0.154-0.116c0 0 0.039 0 0.039-0.039 0.039-0.039 0.039-0.039 0.077-0.077 0-0.039 0.039-0.039 0.039-0.039l0.039-0.039c0.039-0.039 0.039-0.039 0.039-0.077l0.039-0.039c0 0 0 0 0-0.039 0 0 0.039 0 0.039-0.039l0.116-0.116c0.039-0.039 0.039-0.077 0.077-0.077 0.039-0.039 0.077-0.039 0.116-0.116 0-0.039 0.039-0.039 0.077-0.039s0.039-0.039 0.077-0.039c0.039 0 0.039-0.039 0.077-0.039 0-0.039 0-0.039 0.039-0.039s0.039 0 0.039-0.039 0.039-0.039 0.077-0.077c0 0 0.039 0 0.039-0.039l0.039-0.039c0.039-0.039 0.039-0.039 0.077-0.077l0.039-0.039v-0.039c0.039-0.039 0.039-0.039 0.077-0.077s0.039-0.039 0.077-0.077c0-0.039 0-0.039 0.039-0.039s0.039 0 0.039-0.039c0.039-0.039 0.039-0.039 0.077-0.077l0.039-0.039c0 0 0-0.039 0.039-0.039 0-0.039 0.039-0.039 0.077-0.077l0.039-0.039c0 0 0.039 0 0.039-0.039 0 0 0-0.039 0.039-0.039l0.039-0.039c0 0 0.039 0 0.039-0.039 0 0 0-0.039 0.039-0.039 0.039-0.039 0.039-0.039 0.077-0.039 0 0 0-0.039 0.039-0.039l0.116-0.116c0 0 0.039-0.039 0.077-0.039 0.039-0.039 0.116-0.077 0.154-0.116s0.039-0.039 0.077-0.077c0.039 0 0.039-0.039 0.077-0.077l0.039-0.039c0 0 0.039 0 0.039-0.039 0.039-0.039 0.039-0.039 0.077-0.077s0.039-0.039 0.077-0.077 0.116-0.077 0.154-0.116c0.039 0 0.039-0.039 0.039-0.039 0.039 0 0.077-0.039 0.116-0.077s0.077-0.077 0.116-0.116c0.039-0.039 0.116-0.077 0.154-0.116s0.039-0.039 0.077-0.077h0.039c0 0 0 0 0-0.039 0 0 0.039 0 0.039-0.039 0.039-0.039 0.039-0.039 0.077-0.077s0.039-0.039 0.077-0.077 0.077-0.039 0.077-0.077 0.039-0.039 0.077-0.039 0.039-0.039 0.077-0.039l0.039-0.039c0 0 0 0 0.039 0l0.039-0.039c0.039-0.039 0.039-0.039 0.077-0.077 0 0 0.039 0 0.039-0.039h0.039c0 0 0-0.039 0.039-0.039l0.039-0.039c0.039-0.039 0.077-0.039 0.077-0.077 0.039-0.039 0.039-0.039 0.077-0.077 0.039 0 0.039 0 0.039-0.039 0 0 0.039 0 0.039-0.039l0.077-0.077c0 0 0 0 0.039 0h0.039c0 0 0-0.039 0.039-0.039 0 0 0 0 0.039 0 0 0 0 0 0.039-0.039l0.039-0.039c0.039-0.039 0.077-0.039 0.077-0.077 0.039-0.039 0.116-0.077 0.154-0.154 0 0 0.039 0 0.039-0.039l0.039-0.039c0.039 0 0.039-0.039 0.077-0.039 0.039-0.039 0.039-0.039 0.077-0.077s0.039-0.039 0.077-0.077l0.039-0.039h0.039c0 0 0-0.039 0 0l0.039-0.039c0.039-0.039 0.077-0.039 0.077-0.077 0 0 0 0 0-0.039h0.039c0.039 0 0.039 0 0.039-0.039 0 0 0.039 0 0.039-0.039 0.039 0 0.039-0.039 0.077-0.039 0.039-0.039 0.039-0.039 0.077-0.077 0 0 0-0.039 0.039-0.039 0 0 0 0 0.039 0 0 0 0 0 0.039 0 0 0 0.039 0 0.039-0.039 0 0 0 0 0-0.039 0 0 0 0 0.039 0 0-0.039 0.039-0.039 0.039-0.039s0.039 0 0.039-0.039c0.039 0 0 0 0.039-0.039l0.039-0.039c0 0 0.039 0 0.039-0.039 0 0 0-0.039 0.039-0.039 0 0 0.039 0 0.039-0.039l0.039-0.039 0.039-0.039c0.039 0 0.039-0.039 0.077-0.039 0 0 0.039-0.039 0.077-0.039 0 0 0-0.077 0.039-0.039 0.039 0 0.077-0.039 0.077-0.039 0.039 0 0.077-0.039 0.077-0.077 0.039-0.039 0.077-0.039 0.077-0.077l0.039-0.039c0 0 0.039 0 0.039-0.039l0.039-0.039c0-0.039 0-0.039 0.039-0.039s0.039-0.039 0.077-0.039c0-0.039 0.039-0.039 0.077-0.077s0.039-0.039 0.077-0.039 0.039-0.039 0.039-0.039c0.039 0 0.039-0.039 0.077-0.039 0.039-0.039 0.077-0.039 0.077-0.077 0.039-0.039 0.039-0.039 0.077-0.039 0 0 0.039 0 0.039-0.039 0 0 0.039 0 0.039-0.039 0.039 0 0.039-0.039 0.077-0.039s0.039-0.039 0.077-0.039c0 0 0.039 0 0.039-0.039 0.039 0 0.039 0 0.077-0.039v0.039c0 0.039 0 0.039 0 0.039v0.116c0 0.039 0 0.077 0 0.116v0.077c0 0.077 0 0.154 0 0.231 0 0.039 0 0.077 0 0.116s0 0.077 0 0.116c0 0.039 0 0.077 0 0.077v0.039c0 0.039 0 0.077 0 0.116v0.039c0 0.039 0 0.077 0 0.116s0 0.077 0 0.116c0 0.039 0 0.039 0 0.077 0 0 0 0 0 0.039 0 0 0 0 0 0.039s0 0.077 0 0.116c0 0.039 0 0.077 0 0.116s0 0.077 0 0.116c0 0.039 0 0.077 0 0.116s0 0.039 0 0.039v0.039c0 0.039 0 0.077 0 0.116s0 0.077 0 0.116c0 0.039 0 0.077 0 0.116s0 0.116 0 0.193c0 0.039 0 0.039 0 0.077s0 0.039 0 0.039c0 0.039 0 0.039 0 0.039v0.077c0 0 0 0 0 0.039s0 0.077 0 0.116v0.039c0 0 0 0.039 0 0.077s0 0.039 0 0.077v0.077c0 0.039 0 0.039 0 0.039 0 0.039 0 0.039 0 0.077s0 0.077 0 0.116c0 0.039 0 0.077 0 0.077 0 0.039 0 0.077 0 0.077 0 0.039 0 0.077 0 0.077s0 0 0 0.039c0 0 0 0.039 0 0.077v0.039c0 0 0 0 0 0.039 0 0 0 0 0.039 0.039v0.039c0 0.039 0 0.077 0 0.116h-0.039v0.039c0 0 0 0.039 0.039 0.039v0.039c0 0 0 0.039 0 0.077v0.039c0 0.039 0 0.077 0 0.116s0 0.039 0 0.077 0 0.077 0 0.077-0.039 0.077-0.039 0.116c0 0.039 0 0.077 0 0.116s0 0.039 0 0.077v0.039c0 0.077 0 0.116 0.039 0.193 0 0.039 0 0.077 0 0.077 0 0.039 0 0.039 0 0.077 0 0 0 0.039 0 0.077s0 0.077 0 0.116c0 0.039 0 0.077 0 0.116s0 0.077 0 0.116c0 0.039 0 0.039 0 0.077v0.039c0 0.039 0 0.039 0 0.039s0 0.039 0 0.077c0 0.039 0 0.077-0.039 0.116 0 0.039 0 0.039 0 0.077v0.039c0 0.039 0 0.077 0 0.116s0 0.077 0 0.116c0 0.039 0 0.077 0 0.116s0 0.077 0 0.116v0.077c0 0.039 0 0.077 0 0.077 0 0.039 0 0.039 0 0.077s0 0.039 0 0.039 0 0.039 0 0.077c0 0.039 0 0.039 0 0.077s0 0.077 0 0.116c0 0.039 0 0.077 0 0.116s0 0.077 0 0.116 0 0.077 0 0.116c0 0 0 0.039 0 0.077v0.039c0.039 0 0 0.077 0 0.116s0 0.077 0 0.116c0 0.039 0 0.039 0 0.039v0.039c0 0.039 0 0.039 0 0.039s0 0 0 0.039c0 0 0 0 0 0.039s0 0.116 0 0.154c0 0.039 0 0.077 0 0.116v0.039c0 0.039 0 0.039 0 0.077s0 0.039 0 0.077 0 0.116 0 0.154c0.039 0 0.039 0.039 0.039 0.039s0 0 0 0.039v0.039c0 0.039 0 0.039 0 0.077s0 0.077 0 0.077 0 0.077 0 0.116c0 0 0 0.039 0 0.077 0 0 0 0 0 0.039 0 0 0 0 0 0.039 0 0 0 0 0 0.039 0 0 0 0.039 0 0.077v0.077c0 0 0 0 0 0.039v0.039c0 0.039 0 0.077 0 0.116 0 0 0 0.039 0 0.077v0.039c0 0.039 0.039 0.077 0.039 0.116s0 0.039 0 0.077c0 0 0 0 0 0.039 0 0 0 0 0 0.039s0.039 0.077 0.039 0.116c0 0.039 0.039 0.039 0.039 0.077l0.077 0.077c0.039 0.039 0.077 0.039 0.077 0.077 0.039 0 0.039 0.039 0.077 0.039 0.039 0.039 0.077 0.039 0.077 0.039 0.077 0.039 0.154 0.039 0.231 0.077 0.039 0 0.077 0.039 0.116 0.039 0.077 0 0.116 0 0.193 0s0.154 0 0.193 0c0 0 0.039 0 0.039-0.039h0.039l0.039-0.039c0 0 0.039 0 0.039-0.039 0.077-0.039 0.154-0.116 0.27-0.193l0.077-0.077c0.039-0.039 0.039-0.077 0.077-0.077 0 0 0-0.039 0.039-0.039v-0.039c0-0.039 0.039-0.039 0.039-0.077v-0.039c0 0 0 0 0-0.039h0.039c0 0 0 0 0.039 0 0 0 0-0.039 0.039-0.039h0.039c-0.039 0-0.077-0.039-0.077-0.039h-0.039v-0.116c0 0 0.077 0 0.077-0.039-0.039 0 0 0-0.039 0v0-0.039c0-0.039-0.039-0.039 0-0.039 0 0 0.039-0.039 0.077-0.039 0 0 0.039-0.039 0-0.039 0 0 0 0.039-0.039 0.039s0-0.039 0-0.039h-0.039c0 0 0-0.039-0.039-0.039 0 0 0 0 0 0.039h-0.039c0 0 0 0 0-0.039 0 0-0.039 0-0.039-0.039 0 0 0.039-0.039 0-0.039l-0.039 0.039c0 0 0 0 0-0.039-0.039 0.039 0 0-0.039-0.039h-0.039c-0.039 0 0-0.039 0-0.039 0-0.039 0-0.039 0-0.039h0.039c-0.039 0 0-0.039 0-0.039s0 0-0.039 0c0 0 0 0-0.039 0 0 0-0.039 0.039-0.039 0 0 0 0 0 0-0.039 0 0 0 0 0-0.039 0.039 0 0 0 0 0.039 0 0 0 0.039 0.039 0.039h0.039v-0.039c0 0 0.039 0 0.039-0.039 0 0-0.039 0-0.039-0.039 0 0 0 0-0.039 0h0.039c0 0 0 0 0.039-0.039-0.039 0 0-0.039 0-0.039 0.039 0 0 0.039 0 0.039 0.039 0 0.039-0.039 0.039-0.077h-0.077c-0.039 0-0.039-0.039-0.039-0.039-0.039-0.039-0.039 0.039-0.077 0 0.039 0 0.039-0.077 0.077-0.039 0 0 0 0.039 0.039 0.039l0.039-0.039c0 0 0-0.039-0.039-0.039 0 0-0.039 0-0.039-0.039-0.039 0 0 0-0.039-0.039-0.039 0 0 0 0 0.039 0-0.039 0-0.039 0-0.077 0 0 0 0 0-0.039 0 0 0 0-0.039 0 0 0.039 0.039 0.077-0.039 0.077-0.039 0-0.077-0.039-0.077-0.039v-0.039c0-0.039 0.039 0 0-0.039 0 0 0 0-0.039-0.039v-0.039c0 0 0 0 0-0.039 0 0 0 0 0.039 0 0 0 0.039 0 0-0.039h-0.039c0 0 0-0 0-0.039s0.039 0 0.077 0c0.039 0 0.039-0.039 0.039-0.039l-0.039-0.039c-0.039 0-0.039 0.039-0.039 0.039s0 0-0.039 0c-0.077 0 0-0.039 0-0.039s0.039 0 0.077 0c0.039 0 0.039 0 0.039 0s-0.039 0-0.039-0.039l0.039-0.039c0 0 0 0 0.039-0.039 0 0 0 0 0-0.039l0.039-0.039c0 0-0.039 0-0.039-0.039 0 0 0.039 0 0-0.039 0 0 0 0.039-0.039 0.039s0-0.039 0-0.039h-0.039v-0.039c0 0 0 0-0.039 0 0 0 0 0 0-0.039s0 0 0-0.039v-0.154c0 0 0 0 0-0.039 0 0 0 0-0.039 0v-0.039c0 0 0 0-0.039 0v0.039h-0.039c0 0 0-0.039-0.039-0.039 0 0 0 0-0.039 0h-0.039c0 0 0 0 0-0.039l0.039-0.039v-0.039c-0.039 0-0.039 0-0.039-0.039s0.077-0.039 0.077 0c-0.039 0 0 0.039 0 0s0 0 0-0.039v-0.039c0 0 0 0 0-0.039 0 0 0.039 0 0-0.039h-0.039c0-0.039 0.077-0.039 0.039-0.077 0-0.039-0.077 0-0.039-0.039 0 0 0.039 0 0.039-0.039v-0.039c0 0 0 0-0.039 0h-0.039v-0.039c0-0.039 0-0.039 0-0.039 0.039-0.039-0.039-0.039-0.077-0.039 0 0-0.039 0.039-0.039 0s0-0.039 0-0.039c0.039-0.039 0-0.077 0-0.116 0 0 0 0 0.039 0 0 0 0 0 0.039 0v-0.039c0-0.039-0.039-0.039-0.077 0 0-0.039 0.039-0.039 0-0.039h-0.039v-0.039l-0.077-0.039 0.039-0.039c0 0 0.039-0.077 0-0.077 0 0-0.039 0-0.039-0.039 0 0 0 0 0-0.039 0 0 0 0 0-0.039-0.039-0.039 0.039-0.039 0.077-0.039l0.039-0.039h-0.077c0 0 0 0 0-0.039v-0.077c0 0 0-0.039-0.039-0.039s0 0.039 0 0.039 0 0.039-0.039 0.039h-0.039c0 0 0 0 0-0.039 0 0 0 0 0-0.039s0.039 0 0.039-0.039c0-0.039-0.039-0.039-0.039-0.039 0-0.039 0.039-0.039 0-0.039 0-0.039 0.077 0 0.116 0v-0.039c0 0-0.039 0-0.039-0.039v-0.039h-0.039v-0.039c0 0 0 0 0-0.039 0 0 0 0-0.039 0s0-0.039 0-0.039 0 0 0-0.039c0 0 0 0 0.039 0 0 0 0-0.039 0.039-0.039h0.039c0.039 0 0.039-0.039 0.039-0.077l-0.039 0.039c0 0.039-0.039 0-0.039 0 0-0.039 0-0.039 0.039-0.039v-0.039c0 0 0 0-0.039 0.039 0 0 0 0.039-0.039 0v-0.039c0 0-0.039 0-0.039-0.039s0.039 0 0.039-0.039v-0.039c0 0 0 0 0-0.039 0 0 0 0 0 0.039 0 0 0 0-0.039 0h-0.039v-0.039c0 0 0 0 0-0.039s0-0.039-0.039-0.039v-0.039c0 0 0 0-0.039 0s0-0.039 0-0.039 0 0 0.039-0.039 0 0 0.039 0l0.039-0.039v-0.039h0.039c0 0 0 0 0-0.039 0 0-0.039 0-0.077 0v0c0 0 0 0 0.039 0 0 0 0 0 0.039 0 0 0 0.039 0 0.039-0.039v-0.039h-0.039c0 0 0.039-0.039 0-0.039 0 0 0 0-0.039 0l-0.039-0.039h0.039c0.039 0 0.039-0.039 0-0.039 0 0-0.039 0-0.039-0.039 0 0 0 0-0.039 0 0 0 0 0 0-0.039 0 0-0.039 0-0.039-0.039s0-0.039 0.039-0.039h0.039v-0.039c0 0 0 0 0-0.039 0 0 0 0 0-0.039v-0.039c0 0 0-0.039-0.039-0.039 0 0-0.039 0.039-0.077 0.039 0 0 0.039 0 0.039-0.039 0 0-0.039-0.039-0.039 0v0.039c0 0 0 0 0-0.039l0.039-0.039c0 0 0 0 0-0.039 0 0 0 0-0.039 0s0-0.039 0-0.039 0 0 0-0.039c0 0 0 0 0-0.039h0.077c0 0 0 0 0-0.039 0 0 0 0-0.039 0 0 0 0 0 0-0.039s0-0.039 0.039-0.039c0 0 0 0-0.039 0 0 0 0.039 0 0.039-0.039h-0.039c0 0 0 0 0-0.039v-0.039c0 0 0-0.039 0.039-0.039v-0.039c0 0 0 0.039-0.039 0.039v-0.039c0 0 0-0.039 0.039-0.039 0 0 0.039-0.039 0-0.039 0 0 0 0-0.039 0v-0.039c0 0 0 0 0-0.039 0 0 0 0 0-0.039v-0.039c0 0-0.039 0-0.039-0.039 0 0 0 0 0-0.039 0 0 0 0 0-0.039v-0.039h0.039c0 0 0 0 0-0.039v-0.116c0 0 0 0-0.039 0 0 0 0 0 0.039 0v-0.039c0 0 0 0 0-0.039 0 0 0 0 0-0.039v-0.039c0 0 0 0 0-0.039 0 0 0 0 0-0.039v-0.039c0 0 0-0.039-0.039 0v-0.116h0.039c0 0 0 0 0-0.039v-0.077c0 0 0.039-0.039 0-0.039 0 0 0 0-0.039 0 0 0 0 0 0-0.039 0 0 0.039 0 0.039-0.039h0.039v-0.077h-0.039c0 0 0 0 0-0.039 0 0 0 0 0-0.039v-0.039c0 0 0 0 0-0.039 0 0 0 0 0-0.039 0 0 0 0 0-0.039v-0.077c0 0 0 0 0-0.039v-0.116c0 0 0 0 0-0.039 0 0 0 0 0-0.039 0 0 0 0 0-0.039s0 0 0.039-0.039v-0.039c0 0 0 0 0-0.039v-0.039c0 0 0 0 0-0.039v-0.039c0 0 0 0 0-0.039v-0.039c0 0 0 0 0-0.039s-0.039 0-0.039-0.039c0 0 0-0.039 0-0.077v-0.039c0 0 0 0 0-0.039v-0.077c0 0 0 0 0-0.039 0 0 0 0 0-0.039 0 0-0.039-0.039 0-0.039 0 0 0 0 0-0.039 0 0 0 0 0-0.039v-0.039h0.039v0.039c0 0 0.039 0 0.039-0.039 0 0 0 0 0-0.039 0 0 0 0 0.039-0.039h-0.039c0 0 0.039-0.039 0-0.039 0 0 0 0 0-0.039v-0.039c0 0 0 0 0.039 0v-0.039c0 0 0 0 0-0.039 0 0 0-0 0-0.039 0 0 0 0 0-0.039v-0.039c0 0 0 0 0-0.039 0 0 0 0 0-0.039v-0.039c0 0 0-0.039 0-0.077 0 0 0 0-0.039 0 0 0 0 0 0-0.039 0 0 0 0-0.039 0v-0.039c0 0 0 0 0-0.039 0 0 0 0 0-0.039s0-0.039 0-0.077l0.039-0.039v-0.039c0 0-0.039 0-0.039-0.039 0 0 0 0 0-0.039 0 0 0 0 0-0.039 0 0 0 0 0-0.039 0 0 0 0 0.039-0.039 0 0 0 0 0-0.039 0 0 0 0 0.039-0.039 0 0 0 0 0-0.039v-0.039c0 0 0 0-0.039 0s0-0.039-0.039-0.039c0 0 0 0 0-0.039 0 0 0 0 0-0.039 0 0 0 0 0-0.039 0 0 0 0 0-0.039 0 0 0 0 0-0.039v-0.116c0 0 0 0-0.039 0 0 0 0 0 0-0.039 0 0 0 0 0.039 0 0 0 0 0 0.039 0 0 0 0 0 0-0.039 0 0 0 0 0-0.039-0.039 0-0.039 0-0.039-0.039s0.039-0.039 0.039-0.039v-0.116c0 0 0 0 0-0.039s0.039-0.039 0.039-0.039l0.039-0.039c0 0 0-0.039 0.039-0.039 0 0 0 0.039 0.039 0 0 0 0-0.039 0.039-0.039h0.039v-0.039c0 0 0.039 0 0.077 0 0 0 0-0.039 0.039-0.039 0 0 0.039-0.039 0-0.039 0 0 0 0 0.039 0 0 0 0 0 0.039 0 0 0 0 0 0.039 0 0 0 0 0 0.039 0-0.039 0 0-0.039 0.039-0.039 0 0 0 0 0.039 0 0 0 0 0 0-0.039l0.039-0.039c0 0 0.039 0 0.039-0.039 0 0 0.039 0 0.039-0.039l0.039-0.039c0 0 0 0 0.039 0 0 0 0 0 0-0.039l0.039-0.039c0 0 0 0 0.039 0 0 0 0 0 0.039 0 0 0 0 0 0.039 0 0 0 0 0 0.039 0l0.077-0.077c0-0.039 0.039-0.039 0.077-0.039h0.039l0.039-0.039c0.039-0.039 0.039-0.039 0.077-0.039 0 0 0.039 0 0.039-0.039 0 0 0.039 0 0.039-0.039 0.039 0 0.039-0.039 0.077-0.077s0.077-0.039 0.116-0.077h0.077c0 0 0 0 0-0.039 0 0 0.039 0 0.039-0.039 0.039 0 0.039 0 0.039 0h0.039c0-0.039 0-0.039 0.039-0.039 0 0 0.039 0 0.039-0.039 0 0 0.039 0 0.039-0.039 0 0 0 0 0.039-0.039h0.039c0 0 0-0.039 0.039-0.039s0.077-0.039 0.116-0.039c0.039-0.039 0.077-0.039 0.116-0.077h0.039c0 0 0 0 0.039-0.039 0 0 0.039 0 0.039-0.039l0.077-0.039c0.039-0.039 0.039-0.039 0.077-0.039s0.039-0.039 0.077-0.039c0 0 0.039 0 0.039-0.039 0 0 0.039 0 0.039-0.039 0.039 0 0.039-0.039 0.077-0.039s0.077-0.039 0.116-0.077c0.039 0 0.077-0.039 0.077-0.039l0.039-0.039c0 0 0.039 0 0.039-0.039 0 0 0 0 0-0.039h0.039c0 0 0 0 0.039 0l0.039-0.039c0.039-0.039 0.077-0.039 0.116-0.077 0.077-0.039 0.116-0.077 0.193-0.116 0.039 0 0.039-0.039 0.077-0.039s0.077-0.039 0.116-0.039 0.116-0.077 0.193-0.116c0.039-0.039 0.077-0.039 0.116-0.077s0.077-0.039 0.116-0.039c0.039-0.039 0.077-0.039 0.116-0.077 0.039 0 0.077-0.039 0.077-0.039 0.039-0.039 0.039-0.039 0.077-0.039s0.077-0.039 0.077-0.039l0.039-0.039h0.039l0.039-0.039c0 0 0.039 0 0.039-0.039 0 0 0.039 0 0.039-0.039 0 0 0.039 0 0.039-0.039 0.039 0 0.039-0.039 0.077-0.039l0.039-0.039c0 0 0.039 0 0.039-0.039l0.039-0.039c0 0 0 0 0.039 0 0 0 0 0 0-0.039h0.039c0 0 0.039 0 0.039-0.039 0.039-0.039 0.039-0.039 0.077-0.039s0.077-0.039 0.116-0.039c0 0 0-0.039 0.039-0.039 0 0 0.039 0 0.039-0.039 0.039 0 0.077-0.039 0.116-0.077 0.077-0.039 0.116-0.077 0.193-0.077 0 0 0.039 0 0.039-0.039l0.077-0.039 0.039-0.039c0.039 0 0.077-0.039 0.077-0.039 0.039 0 0.077-0.039 0.077-0.039h0.039l0.039-0.039c0 0 0.077 0 0.077-0.039h0.039c0 0 0 0 0.039 0 0 0 0.039-0.039 0.077-0.039h0.039l0.039-0.039c0 0 0 0 0.039-0.039 0 0 0.039-0.039 0.039 0l0.039-0.039c0 0 0.039 0 0.039-0.039 0.039 0 0.077-0.039 0.077-0.039l0.039-0.039 0.077-0.039c0 0 0 0 0.039-0.039 0.039 0 0.077-0.039 0.116-0.039l0.039-0.039c0-0.039 0-0.039 0.039-0.039s0.039 0 0.077 0c0-0.039 0.077-0.039 0.077-0.039l0.039-0.039c0 0 0.039 0 0.039-0.039 0.039-0.039 0.039-0.039 0.077-0.039 0 0 0.039 0 0.039-0.039 0 0 0-0.039 0.039-0.039 0 0 0.039 0 0.077 0 0 0 0 0 0.039 0s0.077-0.039 0.116-0.039c0.039 0 0.039-0.039 0.077-0.039s0 0 0.039-0.039h0.039c0 0 0 0 0.039 0 0.039-0.039 0.077-0.039 0.116-0.039s0.077-0.039 0.116-0.039 0.077-0.039 0.077-0.039c0.039 0 0.077-0.039 0.116-0.039 0.039-0.039 0.077-0.039 0.116-0.077 0-0.039 0.039-0.039 0.077-0.039h0.039l0.039-0.039c0 0 0 0 0.039 0 0 0 0.077-0.039 0.116-0.039 0 0 0.039 0 0.039-0.039 0.039 0 0.039 0 0.039-0.039h0.039c0 0 0 0 0.039 0s0.039-0.039 0.077-0.039h0.039l0.039-0.039c0.039 0 0.039-0.039 0.077-0.039 0 0 0.039 0 0.039-0.039h0.039l0.077-0.039 0.039-0.039c0.039 0 0.077-0.039 0.077-0.039l0.039-0.039h0.039c0.039 0 0.077-0.039 0.077-0.039 0.039-0.039 0.077-0.039 0.116-0.077 0.039 0 0.077-0.039 0.116-0.039 0 0 0.039 0 0.039-0.039 0 0 0 0 0.039 0s0.077-0.039 0.077-0.039 0.039 0 0.039-0.039c0.039 0 0.039 0 0.039-0.039 0.039 0 0.077-0.039 0.116-0.039s0.077-0.039 0.116-0.039c0.039 0 0.077-0.039 0.077-0.039 0.039 0 0.077 0 0.077-0.039 0.039 0 0.077-0.039 0.077-0.039l0.039-0.039h0.039l0.039-0.039c0.039 0 0.039 0 0.039-0.039 0.039 0 0.077-0.039 0.077-0.039 0.039 0 0.077-0.039 0.116-0.039l0.039-0.039h0.039c0.039 0 0.039-0.039 0.077-0.039s0.039 0 0.077-0.039c0.039 0 0.039-0.039 0.077-0.039s0.039 0 0.077 0c0 0 0.039-0.039 0.077-0.039s0.039-0.039 0.077-0.039c0.077-0.039 0.154-0.039 0.231-0.077 0.039 0 0.077-0.039 0.116-0.039s0.193-0.077 0.27-0.077c0.077-0.039 0.154-0.039 0.231-0.077 0.039 0 0.077-0.039 0.116-0.039s0.077 0 0.116-0.039 0.154-0.039 0.231-0.077c0.039 0 0.077 0 0.116-0.039s0.116-0.039 0.154-0.077c0.077-0.039 0.116-0.039 0.193-0.077 0.039 0 0.039-0.039 0.077-0.039s0.154-0.077 0.193-0.116c0.039 0 0.077-0.039 0.077-0.039 0.077-0.039 0.116-0.116 0.193-0.116h0.039l0.039-0.039c0 0 0.039 0 0.039-0.039 0.039 0 0.039 0 0.039-0.039 0 0 0.039 0 0.039-0.039 0.039-0.039 0.039-0.077 0.077-0.116 0-0.039 0.039-0.039 0.039-0.077l0.039-0.039v-0.039c0 0 0 0 0-0.039 0 0 0 0 0.039 0 0 0 0 0.039 0.039 0.039 0 0-0.039-0.039 0-0.039 0 0 0 0 0-0.039v-0.039c0.039 0 0.039 0 0.039-0.039s0.039-0.077 0.039-0.077v0.039c0 0 0 0 0-0.039v-0.039c0 0 0-0.039 0.039-0.039v-0.039h0.039l0.039-0.039c0 0-0.039 0-0.039-0.039 0.655-0.81 0.655-0.81 0.655-0.848z"></path>
<path d="M24.473 7.595c0 0.039 0 0.039 0.039 0.077v0.039c0 0 0 0 0 0.039 0.039 0.039 0.077 0.077 0.116 0.116 0 0 0.039 0.039 0.077 0.039s0.039 0 0.077 0.039 0.077 0.039 0.154 0.039c0.039 0 0.077 0 0.116 0s0.039 0 0.077 0h0.039c0 0 0 0 0.039 0 0 0 0.039 0 0.077 0 0 0 0 0 0.039-0.039 0.039 0 0.077-0.039 0.116-0.039l0.039-0.039c0.039 0 0.039 0 0.077 0 0 0 0-0.039 0.039-0.039 0 0 0.039 0 0.039-0.039 0.039 0 0.039-0.039 0.077-0.039 0.039-0.039 0.077-0.077 0.116-0.116 0-0.039 0.039-0.039 0.039-0.077s0.039-0.039 0.039-0.077c0 0 0.039-0.039 0.039-0.077s0.039-0.039 0.077-0.077c0.039-0.039 0.039-0.039 0.077-0.077 0-0.039 0.039-0.039 0.077-0.039v-0.077c0 0 0 0 0.039-0.039v-0.039c0 0 0 0 0.039-0.039v-0.039c0 0 0 0 0-0.039 0 0 0 0 0-0.039s0-0.039 0-0.077 0-0.039 0.039-0.077l0.039-0.039c0 0 0 0 0-0.039 0 0 0 0 0-0.039v-0.039c0 0 0 0 0-0.039-0.039 0-0.039-0.039 0-0.077v-0.039c0-0.039 0-0.039-0.039-0.039 0 0 0 0-0.039-0.039v-0.039c0 0 0 0-0.039-0.039 0 0 0-0.039-0.039-0.039v-0.039c0 0 0 0-0.039-0.039 0 0 0 0-0.039 0 0 0-0.039 0-0.077 0h-0.077c0 0 0 0-0.039 0h-0.039c-0.039 0-0.039 0-0.077 0s-0.039 0-0.077 0h-0.039c-0.039 0-0.039 0-0.077 0h-0.039c-0.039 0-0.039 0-0.077 0.039-0.039 0-0.039 0-0.077 0.039h-0.039c0 0 0 0-0.039 0s-0.039 0-0.077 0.039c0 0 0 0-0.039 0 0 0-0.039 0.039-0.077 0.039h-0.039c0 0 0 0-0.039 0.039 0 0 0 0-0.039 0 0 0 0 0-0.039 0 0 0 0 0-0.039 0.039 0 0 0 0-0.039 0h-0.039c0 0 0 0 0 0.039l-0.039 0.039c0 0 0 0.039-0.039 0.039h-0.039c0 0 0 0 0 0.039 0 0 0 0 0 0.039h-0.039l-0.039 0.039v0.039c0 0 0 0-0.039 0.039 0 0 0 0 0 0.039 0 0 0 0 0 0.039-0.039 0.039-0.039 0.039-0.039 0.077v0.039c0 0 0 0.077-0.039 0.077v0.039c0 0 0 0 0 0.039v0.154c0 0.039 0 0.039 0 0.077s0.039 0.039 0.039 0.039c-0.116 0.193-0.116 0.231-0.116 0.27z"></path>
<path d="M11.751 16.424c-0.077 0-0.077-0.077-0.116-0.077s-0.039-0.116 0-0.116c0 0 0 0-0.039-0.039 0-0.039-0.039-0.039-0.039-0.077s0-0.116-0.039-0.154c-0.039-0.039-0.039-0.039-0.077-0.077 0-0.077 0-0.077 0-0.077-0.039 0-0.077-0.039-0.077-0.039-0.039 0-0.077 0-0.116 0-0.077 0-0.154 0-0.193 0.039-0.116 0.039-0.231 0.077-0.347 0.154-0.039 0.039-0.077 0.039-0.116 0.077-0.039 0-0.077 0.039-0.116 0.077-0.039 0-0.039 0-0.077 0l-0.039 0.039c-0.039 0.039-0.077 0.039-0.077 0.077-0.039 0-0.077 0.077-0.116 0.116s-0.077 0.116-0.116 0.154c-0.039 0.116-0.116 0.231-0.154 0.347 0 0.039-0.039 0.077-0.039 0.154 0 0.039 0 0.154-0.039 0.154 0.039 0.077 0 0.116 0 0.193s-0.039 0.154-0.039 0.231c0 0.077 0 0.154 0 0.27 0 0.077-0.039 0.154-0.039 0.231 0 0.039-0.039 0.231 0 0.27 0 0.039-0.039 0.039-0.039 0.077s0 0.077 0 0.077 0 0.116 0 0.193c0 0.039 0 0.077 0 0.077 0 0.039 0 0.039 0 0.077 0 0.116 0 0.27-0.039 0.386 0 0 0 0.116 0 0.154s0 0.116 0 0.154c0 0.039 0 0.116 0 0.154-0.077-0.077-0.039 0.116 0 0.154 0 0.039-0.039 0.077-0.039 0.116s0.039 0.077 0 0.116-0.039 0.154-0.039 0.193c0 0.077-0.039 0.154-0.039 0.231v0.039c0 0.039 0 0.116 0 0.193 0 0.116-0.039 0.27 0 0.386 0 0.039 0 0.077 0 0.116s0 0.077 0 0.116c0 0.039 0 0.077 0 0.116s0 0.039 0 0.116-0.039 0.154-0.039 0.231c0 0.116 0 0.193 0 0.308 0 0.039 0 0.116 0 0.154s0.039 0.116 0 0.154c0.039 0.039 0 0.077 0 0.116s0.039 0.077 0.039 0.077c0 0.039 0.039 0.039 0.039 0.077s0.039 0.039 0.039 0.077c0.039 0 0 0.039 0.039 0.039 0 0 0 0 0.039 0.039 0.039 0 0.077 0.039 0.077 0.039 0.077 0.039 0.154 0.039 0.193 0.039h0.039c0.039 0 0.039 0 0.039-0.039 0.039 0 0.077 0 0.116 0 0 0 0-0.039 0.039-0.039 0 0 0.039 0 0.039-0.039 0.039 0 0.077-0.039 0.077-0.039 0.039-0.039 0.077-0.039 0.154-0.077 0.039 0 0.077-0.039 0.077-0.077 0.039-0.039 0.039-0.039 0.077-0.077 0.039 0 0.039-0.039 0.077-0.039 0.039-0.039 0.077-0.077 0.116-0.116s0-0.077 0.077-0.039 0.077 0.039 0.077 0c0.039-0.039 0-0.077 0.039-0.116 0 0.039 0.039 0.039 0.039 0.039h0.039c0 0 0 0 0-0.039s0.039-0.077 0.039-0.077c0-0.077-0.039-0.039-0.116-0.039-0.039 0 0 0-0.039-0.039 0-0.039 0-0.039 0-0.077s0.039-0.077 0.077-0.116c0-0.039 0-0.077 0-0.116 0 0 0-0.039 0.039-0.039 0-0.039 0-0.039 0-0.077s0-0.077 0-0.116v-0.039c0 0-0.039-0.039 0-0.039 0 0 0-0.039 0.039-0.039 0-0.039 0-0.039 0.039-0.077 0-0.039 0-0.039 0-0.077 0 0 0.039-0.077 0-0.077 0-0.039 0-0.116-0.039-0.154 0-0.039 0.039-0.077 0.039-0.116s0-0.039 0-0.077c0 0 0 0 0-0.039s0.039-0.039 0.039-0.077v-0.116c0-0.039 0-0.077 0-0.116s0-0.039 0-0.039v-0.039c0-0.039 0-0.077 0-0.116s0-0.039 0-0.039v-0.039c0-0.039 0-0.077 0-0.116s0.039-0.077 0.039-0.116c0-0.039 0-0.077 0-0.116s0.039-0.039 0.039-0.077c0-0.039 0-0.077 0-0.116 0 0 0-0.039 0-0.077 0 0 0-0.039 0.039-0.039 0-0.039 0-0.077 0.039-0.116 0-0.039 0-0.077 0-0.116s0-0.077 0-0.116c0-0.039 0-0.077 0-0.116 0 0 0 0 0.039-0.039s0-0.116 0.039-0.154c0-0.039 0-0.039 0-0.039l0.039-0.039c0-0.039 0-0.077 0-0.116v-0.116c0-0.039 0-0.077 0-0.116s0-0.077 0.039-0.116c0-0.077 0-0.154 0-0.231 0-0.039 0-0.077 0-0.116s0.039-0.039 0.039-0.077c0-0.039 0-0.077 0.039-0.116 0-0.039 0.039-0.077 0.039-0.116s-0.039-0.077 0-0.116c0 0 0.039 0 0.039-0.039s0-0.039 0-0.039c0-0.039 0-0.039 0.039-0.077 0-0.039 0-0.077 0-0.116v-0.039c0 0 0 0-0.039-0.039 0-0.039 0-0.039 0-0.077s0.039-0.077 0.039-0.116c0-0.039 0.039-0.077 0.039-0.077 0-0.039-0.039-0.039-0.039-0.077v-0.077c0-0.039 0.039-0.039 0.039-0.039s0 0-0.039 0-0.039-0.077-0.039-0.077c-0.039-0.039-0.039-0.077-0.039-0.116s0-0.116 0-0.154c0.039 0 0.116 0 0.116-0.039z"></path>
<path d="M39.471 18.814h-13.34c-2.12 0-3.817 1.696-3.817 3.817s1.696 3.817 3.817 3.817h13.34c2.12 0 3.817-1.696 3.817-3.817s-1.735-3.817-3.817-3.817zM29.177 24.096c0 0.154-0.077 0.27-0.193 0.308-0.039 0-0.077 0.039-0.116 0.039s-0.077 0-0.116-0.039c-0.116-0.039-0.193-0.154-0.193-0.308v-1.735c0-0.193-0.077-0.386-0.27-0.424-0.077-0.039-0.154-0.039-0.231-0.039-0.116 0-0.193 0-0.27 0.039s-0.193 0.039-0.27 0.116v2.043c0 0.154-0.077 0.27-0.193 0.308-0.039 0-0.077 0.039-0.116 0.039-0.193 0-0.347-0.154-0.347-0.347v-1.774c0-0.231-0.116-0.386-0.308-0.424-0.077-0.039-0.154-0.039-0.231-0.039-0.193 0-0.308 0.039-0.424 0.077v2.159c0 0.077-0.039 0.193-0.116 0.231-0.077 0.077-0.154 0.116-0.231 0.116s-0.154-0.039-0.231-0.116c-0.077-0.039-0.116-0.116-0.116-0.231v-2.468c0.154-0.077 0.308-0.116 0.463-0.154 0.193-0.039 0.386-0.039 0.617-0.039s0.424 0.039 0.578 0.077c0.154 0.039 0.27 0.154 0.347 0.231 0.039-0.039 0.116-0.077 0.154-0.116 0.193-0.116 0.424-0.193 0.771-0.193 0.077 0 0.154 0 0.231 0.039 0.154 0.039 0.27 0.077 0.386 0.154 0.039 0.039 0.116 0.077 0.154 0.116 0.077 0.077 0.154 0.193 0.193 0.27 0.039 0.116 0.077 0.231 0.077 0.347v1.735zM31.606 24.251c-0.193 0.154-0.424 0.27-0.733 0.27-0.116 0-0.193 0-0.308-0.039-0.463-0.116-0.733-0.424-0.848-0.887-0.039-0.193-0.077-0.386-0.077-0.617s0.039-0.424 0.077-0.617c0.116-0.463 0.424-0.81 0.848-0.887 0.077-0.039 0.193-0.039 0.308-0.039 0.424 0 0.733 0.154 0.925 0.424s0.308 0.655 0.308 1.079c-0.039 0.578-0.193 1.041-0.501 1.311zM34.536 24.058c-0.231 0.27-0.617 0.424-1.041 0.424-0.347 0-0.617-0.039-0.81-0.116-0.077-0.039-0.116-0.039-0.154-0.077v-3.817c0-0.077 0.039-0.193 0.116-0.231s0.154-0.116 0.231-0.116c0.039 0 0.077 0 0.116 0.039 0.039 0 0.077 0.039 0.116 0.077 0.039 0.077 0.077 0.154 0.077 0.231v1.079c0.039 0 0.077-0.039 0.116-0.039 0.077-0.039 0.154-0.039 0.27-0.077 0.039 0 0.116 0 0.193 0s0.154 0 0.231 0.039c0.231 0.039 0.424 0.193 0.578 0.386 0.193 0.27 0.308 0.617 0.308 1.041 0.039 0.501-0.116 0.887-0.347 1.157zM36.078 24.096c0 0.193-0.154 0.347-0.308 0.347-0.039 0-0.077 0-0.116-0.039-0.116-0.039-0.193-0.154-0.193-0.308v-2.275c0-0.193 0.154-0.347 0.308-0.347s0.27 0.077 0.308 0.193c0 0.039 0.039 0.077 0.039 0.116v2.313h-0.039zM35.885 20.935c-0.039 0-0.077 0.039-0.154 0.039-0.039 0-0.116 0-0.154-0.039-0.116-0.039-0.231-0.154-0.231-0.308s0.077-0.27 0.231-0.308c0.039 0 0.077-0.039 0.154-0.039 0.039 0 0.116 0 0.154 0.039 0.116 0.039 0.231 0.154 0.231 0.308s-0.077 0.27-0.231 0.308zM37.042 24.443h-0.039c-0.193 0-0.308-0.154-0.308-0.347v-3.624c0-0.193 0.154-0.308 0.308-0.308 0.193 0 0.308 0.154 0.308 0.347v3.624c0.039 0.154-0.077 0.308-0.27 0.308zM40.203 24.289c-0.039 0.039-0.116 0.039-0.193 0.077-0.193 0.077-0.463 0.116-0.81 0.116-0.308 0-0.578-0.077-0.81-0.231-0.077-0.039-0.154-0.116-0.193-0.154-0.231-0.27-0.386-0.655-0.386-1.157 0-0.733 0.27-1.234 0.733-1.426 0.077-0.039 0.154-0.077 0.231-0.077s0.193-0.039 0.27-0.039c0.193 0 0.386 0.039 0.501 0.116 0.231 0.116 0.386 0.27 0.501 0.501s0.154 0.54 0.154 0.925l-1.812 0.27c0.039 0.27 0.116 0.463 0.231 0.617s0.308 0.193 0.578 0.193c0.231 0 0.424-0.039 0.578-0.077 0.039 0 0.077-0.039 0.116-0.039s0.077-0.039 0.116-0.039c0.039 0 0.077 0 0.077 0 0.077 0.039 0.154 0.116 0.154 0.193 0.077 0.116 0.039 0.193-0.039 0.231z"></path>
<path d="M30.834 21.86c-0.463 0-0.578 0.54-0.578 1.118 0 0.54 0.116 1.079 0.578 1.079s0.578-0.501 0.578-1.079-0.077-1.118-0.578-1.118z"></path>
<path d="M39.086 21.86c-0.386 0-0.656 0.308-0.656 1.041l1.234-0.193c0-0.617-0.193-0.848-0.578-0.848z"></path>
<path d="M33.572 21.822c-0.193 0-0.308 0.039-0.386 0.077v2.082c0.077 0.039 0.231 0.077 0.347 0.077 0.54 0 0.733-0.463 0.733-1.157-0.039-0.578-0.193-1.079-0.694-1.079z"></path>
<path d="M30.834 24.096c-0.463 0-0.578-0.54-0.578-1.118s0.077-1.118 0.578-1.118c0.463 0 0.578 0.54 0.578 1.118s-0.077 1.118-0.578 1.118z"></path>
</svg>
