<!-- Generated by IcoMoon.io -->
<svg version="1.1" xmlns="http://www.w3.org/2000/svg" width="65" height="32" viewBox="0 0 65 32">
<title>yelp</title>
<path d="M5.945 24.25h0.043l1.95-7.045c0.22-0.788 0.68-1.58 1.533-1.385 1.126 0.262 1.126 0.705 1.126 1.086 0 0.255-0.089 0.576-0.243 0.98l-3.188 10.513c-0.768 2.127-1.645 3.236-3.66 3.236-1.425 0-2.016-0.679-2.016-1.428 0-0.828 0.952-1.245 1.806-1.245h0.328c0.417 0 0.929-0.222 1.172-1.183l-4.402-9.072c-0.263-0.742-0.394-1.083-0.394-1.444 0-0.851 0.121-1.053 1.051-1.408 0.647-0.248 1.448 0.467 1.645 1.173l3.25 7.221z"></path>
<path d="M31.331 17.281c0-0.984 0.424-1.507 1.333-1.507 0.87 0 1.336 0.523 1.336 1.507v0.503h0.039c0.486-1.355 1.678-2.011 3.112-2.011 2.465 0 4.629 1.944 4.629 6.071 0 3.057-1.435 5.919-4.547 5.919-1.353 0-2.367-0.59-2.909-1.616h-0.039v4.26c0 1.050-0.588 1.597-1.477 1.597s-1.477-0.547-1.477-1.597v-13.127zM37.799 17.974c-1.783 0-2.456 1.845-2.456 3.862 0 1.822 0.588 3.961 2.456 3.935 1.95 0 2.433-2.282 2.433-3.935 0-2.090-0.798-3.816-2.433-3.862z"></path>
<path d="M24.992 13.489c0-1.067 0.581-1.623 1.464-1.623s1.464 0.556 1.464 1.623v13.322c0 1.067-0.581 1.62-1.464 1.62s-1.464-0.556-1.464-1.62v-13.322z"></path>
<path d="M14.812 22.823c0 1.729 0.942 2.988 2.541 2.988 2.072 0 2.072-1.616 3.184-1.616 0.66 0 1.129 0.676 1.129 1.282 0 1.977-2.656 2.898-4.314 2.898-3.841 0-5.292-3.1-5.292-5.956 0-3.819 1.94-6.383 5.197-6.383 3.165 0 4.974 2.673 4.974 5.369 0 1.123-0.282 1.414-1.205 1.414l-6.214 0.003zM19.343 21.054c-0.161-1.676-1.172-2.902-2.485-2.902-1.474 0-2.364 1.126-2.689 2.902h5.174z"></path>
<path d="M64.443 5.798c-0.108 0.262-0.256 0.487-0.446 0.676s-0.411 0.338-0.667 0.447c-0.253 0.109-0.525 0.166-0.818 0.166s-0.565-0.056-0.818-0.166c-0.252-0.109-0.476-0.258-0.667-0.447s-0.341-0.414-0.453-0.676-0.167-0.543-0.167-0.845c0-0.295 0.056-0.573 0.167-0.831s0.263-0.48 0.453-0.669c0.191-0.189 0.411-0.338 0.667-0.447 0.253-0.109 0.525-0.166 0.818-0.166s0.565 0.056 0.818 0.166c0.253 0.109 0.476 0.258 0.667 0.447s0.338 0.411 0.446 0.669c0.109 0.258 0.161 0.533 0.161 0.831 0 0.301-0.053 0.583-0.161 0.845zM64.134 4.234c-0.092-0.225-0.217-0.424-0.371-0.59s-0.338-0.298-0.552-0.394c-0.213-0.099-0.443-0.146-0.69-0.146s-0.476 0.050-0.689 0.146c-0.214 0.096-0.397 0.229-0.555 0.394s-0.283 0.364-0.374 0.59c-0.092 0.229-0.138 0.467-0.138 0.715 0 0.258 0.047 0.5 0.138 0.725s0.217 0.424 0.374 0.593c0.158 0.169 0.345 0.305 0.561 0.401s0.447 0.146 0.693 0.146c0.24 0 0.466-0.050 0.679-0.146s0.394-0.229 0.552-0.397c0.154-0.166 0.279-0.361 0.371-0.59 0.092-0.225 0.138-0.467 0.138-0.725 0-0.252-0.046-0.494-0.138-0.722zM63.113 6.188c-0.062-0.083-0.125-0.282-0.181-0.603-0.033-0.162-0.092-0.278-0.178-0.344s-0.21-0.099-0.374-0.099h-0.286v1.047h-0.306v-2.368c0.108-0.013 0.206-0.023 0.299-0.036s0.197-0.020 0.318-0.020c0.164 0 0.306 0.017 0.423 0.050 0.118 0.036 0.21 0.076 0.28 0.129 0.144 0.106 0.217 0.268 0.217 0.48 0 0.162-0.047 0.291-0.138 0.388-0.092 0.093-0.2 0.159-0.328 0.199v0.020c0.217 0.036 0.351 0.229 0.408 0.576 0.033 0.182 0.059 0.315 0.085 0.401s0.050 0.146 0.075 0.185h-0.315v-0.003zM62.87 4.155c-0.092-0.096-0.26-0.146-0.499-0.146-0.062 0-0.118 0-0.161 0.007-0.046 0.003-0.082 0.007-0.115 0.013v0.888h0.295c0.164 0 0.309-0.033 0.434-0.099s0.184-0.182 0.184-0.344c0-0.116-0.046-0.222-0.138-0.318z"></path>
<path d="M53.646 14.896c-0.391 0.397-0.059 1.12-0.059 1.12l2.938 4.952c0 0 0.483 0.652 0.9 0.652 0.42 0 0.834-0.348 0.834-0.348l2.324-3.352c0 0 0.233-0.424 0.24-0.792 0.010-0.527-0.778-0.672-0.778-0.672l-5.502-1.782c0 0-0.538-0.142-0.896 0.222z"></path>
<path d="M53.366 12.397c0.282 0.48 1.057 0.341 1.057 0.341l5.489-1.62c0 0 0.748-0.308 0.853-0.715 0.105-0.411-0.124-0.904-0.124-0.904l-2.623-3.117c0 0-0.227-0.394-0.699-0.434-0.519-0.043-0.84 0.59-0.84 0.59l-3.102 4.922c0.007 0.007-0.269 0.497-0.010 0.937z"></path>
<path d="M50.772 10.48c0.647-0.159 0.748-1.106 0.748-1.106l-0.043-7.883c0 0-0.098-0.974-0.532-1.235-0.68-0.417-0.88-0.199-1.077-0.169l-4.557 1.709c0 0-0.446 0.149-0.68 0.523-0.332 0.533 0.338 1.312 0.338 1.312l4.737 6.512c0-0.003 0.469 0.487 1.064 0.338z"></path>
<path d="M49.647 13.671c0.016-0.609-0.722-0.974-0.722-0.974l-4.898-2.497c0 0-0.726-0.301-1.077-0.093-0.269 0.162-0.509 0.454-0.532 0.709l-0.318 3.961c0 0-0.049 0.686 0.128 1 0.249 0.444 1.070 0.136 1.070 0.136l5.719-1.275c0.22-0.149 0.611-0.162 0.63-0.967z"></path>
<path d="M51.072 15.81c-0.492-0.255-1.077 0.272-1.077 0.272l-3.828 4.253c0 0-0.479 0.649-0.355 1.050 0.115 0.374 0.305 0.56 0.571 0.692l3.844 1.226c0 0 0.466 0.096 0.821-0.007 0.502-0.146 0.41-0.937 0.41-0.937l0.085-5.757c-0.007-0.003-0.026-0.56-0.473-0.792z"></path>
</svg>
